<svg xmlns="http://www.w3.org/2000/svg" width="2500" height="2500" viewBox="0 0 2500 2500">
  <metadata><?xpacket begin="﻿" id="W5M0MpCehiHzreSzNTczkc9d"?>
<x:xmpmeta xmlns:x="adobe:ns:meta/" x:xmptk="Adobe XMP Core 5.6-c142 79.160924, 2017/07/13-01:06:39        ">
   <rdf:RDF xmlns:rdf="http://www.w3.org/1999/02/22-rdf-syntax-ns#">
      <rdf:Description rdf:about=""/>
   </rdf:RDF>
</x:xmpmeta>
                                                                                                    
                                                                                                    
                                                                                                    
                                                                                                    
                                                                                                    
                                                                                                    
                                                                                                    
                                                                                                    
                                                                                                    
                                                                                                    
                                                                                                    
                                                                                                    
                                                                                                    
                                                                                                    
                                                                                                    
                                                                                                    
                                                                                                    
                                                                                                    
                                                                                                    
                                                                                                    
                           
<?xpacket end="w"?></metadata>
<defs>
    <style>
      .cls-1 {
        fill-rule: evenodd;
      }
    </style>
  </defs>
  <path class="cls-1" d="M1223.63-2l100.99,3.1c78.42,12.871,152.45,15.73,221.55,36.207,334.27,99.07,576.43,283.8,740.91,552.414,59.45,97.094,104.85,206.741,139.11,328.966,57.25,204.25,44.36,479.06-15.45,668.28-119.76,378.81-390.2,668.49-756.37,798.62-78.76,27.99-162.08,45-253.5,62.07q-61.815,5.16-123.66,10.34h-45.34c-43.57.01-87.19-.34-125.72-7.24-40.98-7.35-78.32-7.28-116.439-16.55-93.445-22.73-180.831-47.47-258.649-84.83C402.5,2191.63,174.224,1948.77,57.132,1578.69,15.371,1446.7-15.59,1233.3,15.913,1063.52,32.8,972.509,48.586,887.939,77.742,810.069,216.8,438.661,475.293,202.671,844.414,61.1,919.592,32.271,1003.57,21.946,1091.73,6.276ZM986.62,274.207q-0.516,1.034-1.031,2.069l1.031,1.034,2.061-1.034Zm74.19,86.9c-9.49.242-13.52,3.72-17.51,9.311l3.09,2.069c5.17,0.981,4.99-2.189,10.3-4.138,0.35,0.689.69,1.379,1.03,2.069l-9.27,15.517c-14.17,3.423-14.4.89-10.31-10.345h-4.12v6.207l-13.39-3.1q0.51-3.1,1.03-6.207c5.47-.391,4.74-0.142,7.21-3.1v-1.034c-13.52,1.594-16.25,7.41-23.7,14.482q-2.58-.516-5.15-1.034v-4.138c2.89-2.98,4.48-2.59,6.18-7.241h-1.03c-2.41.344-4.81,0.689-7.215,1.034v-3.1q6.7-5.172,13.395-10.345h-2.06c-1.72-1.034-3.43-2.069-5.15-3.1-1.38.345-2.75,0.69-4.12,1.035v6.207c-4.149-1.18-3.947-1.422-6.187-4.138q1.547-5.172,3.092-10.345l15.455,1.035q2.58,4.655,5.15,9.31l12.37-2.069c-0.34-6.3-.39-5.723-4.12-8.276h-1.03c-0.22,4.054.75,3.1-2.06,6.207l-6.19-1.034c-1.4-5.8-4.26-6.273-7.21-10.345-3.56,1.564-6.03,2.191-10.3,1.034-1.431-4.834-1.7-4.6-6.183-6.207,1.045-8.983,1.33-9.93,5.152-17.586-2.94-5.679-5.227-5.124-9.274-10.345-10.141,4.684-13.155,11.83-20.61,18.621l-3.091,1.034c-5.722-8.083-14.25-3.759-20.61-11.379l-2.06,1.035v1.034a23.03,23.03,0,0,1-1.031,18.621h-5.152L929.944,328c2.252-4.687,2.353-4.044,2.061-10.345h-4.122q-0.516,1.035-1.031,2.069,1.03,3.1,2.061,6.207L921.7,324.9l-13.4-1.034c-4.308,10.632-5.707,7.2-16.488,13.448l2.061,3.1h5.153q-1.546,4.137-3.092,8.276c-8.522,2.469-10.067,7.986-17.518,10.344-5.339-3.8-9.924-7.629-17.518-9.31-1.984,5.8-3.685,5.353-9.274,7.241a14.291,14.291,0,0,1-1.031,11.38c-10-.125-11.13,3.008-19.579,1.034,1.92,10.639,5.574,19.05,8.244,30H837.2l-5.152,1.035-2.061-9.311h-6.183c0.761,3.834.481,4.025-1.031,7.242l-7.213-2.069q1.545,5.172,3.092,10.345l-3.092,1.034c-4.592,1.887-6.724-.43-9.274,1.035,4.449,1.921,4.493,3.883,5.152,9.31l-4.122,2.069c3.547,3.028,3.99,2.348,4.122,9.31l-7.213,6.207-18.549-8.276q1.03-5.172,2.061-10.345c-6.312-1.647-10.492-8.646-15.457-12.413l-4.122,2.069q-1.029,6.206-2.061,12.413c-6.763-1.344-10.179.947-16.487-1.034-0.5-5.13-.482-4.737-3.092-7.241h-1.03l-2.061,14.482c-7.877.71-7.893,3.591-13.4,3.1l5.152,8.276h1.031c2.333-4.6,4.929-6.011,7.213-11.38h8.244v10.345l3.091-3.1c3.039-1.874,4.149-4.557,6.183-7.242,6.318-.12,9.1.557,12.366,3.1,2.141,2.093,1.406,1.035,2.061,5.172l-5.153,4.138q1.546,8.276,3.092,16.552l-4.122,6.207-27.823-5.173c-2.557,3.9-6.957,4.308-10.3,7.242l2.061,2.069c6.033,12.7,20.907,14.069,36.067,15.517,0.464,13-.684,22.3-5.152,33.1,1.95,6.774,6.784,8.694,7.213,17.587l-6.183,1.034c-0.771,8.3-1.069,14.408-3.091,21.724l-21.64,7.242c-1.162,6.494-2.045,7.09-2.061,13.448,4.313,9.649,17.927,29.62,29.883,31.034v6.207c4.633-3.453,9.345-5.625,10.305,3.1-6.79,2.232-23.227,34.278-29.884,41.379,9.767,15.5-.234,21.967-6.182,36.207l7.213,5.172v5.173l-6.183,2.069h2.061l8.244,1.034v1.035L749.611,718c3.679-1.465,3.96-1.592,8.244-1.035q-0.516,7.24-1.031,14.483c5.548,0.741,8.377,2,11.335,5.173q-1.029,8.791-2.061,17.586c-6.846,1.889-9.613,8.651-13.4,13.448h8.244q1.545,3.1,3.092,6.207c-1.488,14.01-8.115,26.215-10.305,38.276h1.03c2.708-1.33,3.6-1.771,8.244-2.069l4.122,7.241c7.206-8.22,24.988-1.341,29.884-21.724h-1.031l-7.213,4.138v-4.138c5.508-9.984,15.6-9.167,26.792-11.379l4.122,7.241c2.575-3.831,2.423-2.824,7.213-2.069,6.07,15.728-8.249,15.132-15.457,20.69,2.156,2.655,2.124,1.578,3.092,6.207l-3.092,3.1c-6.29-.223-14.03.744-20.609,4.138,1.225,4.428.459,8.36-1.031,12.414l-32.975,3.1,4.122,10.345-11.335-3.1c-2.152,5.1-3.839,4.644-8.244,7.241l3.092,4.138,6.182,3.1c-0.068,10.652-3.414,15.326-7.213,21.724,6.1-1.268,17.072-4.023,20.61-7.242-4.469-1.7-4.1-.851-5.153-6.207l2.061-3.1H766.1c1.9,4.228,1.283,3.908,7.214,4.138q-0.516,3.621-1.031,7.241l-13.4,8.276a258.2,258.2,0,0,0,8.244,28.966c-3.865,1.94-4.6,1.629-6.183,6.206l5.152,9.311c-2.336,1.41-2.036,1.5-6.182,2.069-4.659-2.928-5.525-4-10.305-2.069-0.021,8.105-4.258,21.978-8.244,24.827l-4.122,1.035q-0.514-2.586-1.03-5.172l-2.061,3.1A161.572,161.572,0,0,0,729,969.379l1.031,1.035,9.274-1.035c-1.321,4.745-2.861,5.8-6.183,8.276l-9.274-4.138-2.061,2.069c1.479,7.983.689,5.5-2.061,11.379q-0.514,1.035-1.03,2.069c0.7,0.5,5.849,16.206,5.152,18.626-1.805,6.24-6.623,5.47-4.122,12.41,4.983,0.09,3.516-1,6.183,1.03-1.948,4.85-2.2,7.95,0,12.42,2.061,1.03,4.122,2.07,6.183,3.1-0.882,4.73-1.425,3.98-3.092,7.24,3.383,1.81,5.107,4.27,7.214,7.24-0.383,8.83-4.72,15.05-8.244,21.73h-4.122q-1.545-2.6-3.092-5.17c-0.343.34-.686,0.68-1.03,1.03-1.069,7.63-4.423,25.18-4.122,26.9,2.891,1.61,2.409,1.52,4.122,4.13-8.61,15.94,1.459,13.21-2.061,27.94-6.033,2.24-6.977,4.77-12.366,6.2-1.191,5.84-3.222,7.2,1.031,10.35,3.262,1.9,8.775,1.13,14.426,3.1q-0.514,3.105-1.03,6.21,6.183-.525,12.366-1.04c0.273,5.47-.239,4.99,3.091,7.24,7.96,4.46,13.092-1.93,24.732-3.1,0.343,0.35.687,0.69,1.03,1.04q-0.515,3.09-1.03,6.2c6.915-2.29,16.772-6.59,20.609-4.14,1.374,0.35,2.748.69,4.122,1.04v6.21c-6.15-.39-6.653-1.66-9.274,0,1.5,3.21,1.809,3.4,1.03,7.24h-1.03c-5.669-1.86-9.757-5.26-14.427-2.07h-2.061c2.407,2.94,2.7,2.55,3.092,8.27-10.006-1.75-23.207-7.22-30.915,1.04q-0.514,6.72-1.03,13.45c8.781-6.68,9.168.44,18.548,0l14.427-6.21c3.825,6.03,6,.69,8.244,8.28-3.6,3.01-7.335,8.76-7.213,12.41q0.514,4.14,1.03,8.28c6.23,1.77,11.016.3,18.548,2.06,0.367,11.66,5.323,11.54,7.214,20.69-3.452,7.73,1.714,8.9,0,16.56-1.913,8.54-10.117,11.54-12.366,20.69,0.344,0.34.687,0.68,1.031,1.03,12.93-.6,17.318-3.01,28.853,0v5.17c-4.685,4.6-12.4,3.84-18.549,5.17l-1.03,2.07v2.07c11.537,7.56,11.46,9.41,17.518,20.69h6.183q-0.516,2.6-1.031,5.17l-6.183,10.35c-11.537-.31-13.125,3.8-22.67,6.21-5.717-3.81-8.926-4.7-19.579-5.18-0.343.35-.687,0.69-1.03,1.04-0.105,11.3.922,9.95,1.03,21.72-11.421-.87-24.591,1.8-31.945,8.28-2.1,1.86-.728.01-2.061,3.1l3.092,4.14q4.121-.525,8.244-1.03-1.546,4.125-3.092,8.27h1.031c4-2.14,6.04-3.44,11.335-2.07-1.473,11.62,3.175,15.02,8.244,24.83l-3.092,4.14q-8.242,1.545-16.487,3.1l1.03,2.07,8.244,2.07c1.3,15.03-9.093,15.98-17.518,23.79,3.768,6.45,2.659,20.93,0,26.9-6.048,1.55-7.408,4.96-10.305,9.31,1.717,1.03,3.435,2.07,5.152,3.1l-2.061,10.35q3.607,4.65,7.214,9.31c5.99-5.18,8.66-4.84,19.579-4.14,0.2,15.05-1.98,15.87-2.061,32.07q-5.667-.525-11.335-1.04l-5.153,2.07,2.061,6.21H742.4c0.993,9.93,15.541,19.06,21.64,24.83-0.879,14.97-7.019,29.61-16.488,36.2,3.738,6.83,2.945,13.13,7.213,18.63-1.525,11.19-8.485,12.29-14.426,18.62,4.185,10.48,2.619,21.43,3.091,33.1-8.9,2.43-15.5,2.5-22.671,6.21,1.031,1.03,2.062,2.07,3.092,3.1,4.822-2.44,6.447-3.33,11.335-1.03,2.042,6.15,3.75,4.18,10.305,5.17,1.878,8.32-1.7,12.79,3.091,21.72,4.047,7.55,8.891,8.33,9.275,21.73-11.292,10.31-16.422,23.82-26.793,36.2,0.344,1.73.687,3.45,1.031,5.18,3.407-1.43,4.422-1.88,8.244-1.04,1.991,9.05,4.033,24.48-3.092,34.14-3.667,4.97-5.654-.93-7.213,8.27q9.273,3.63,18.548,7.25c9.179,1.56,20.11-4.63,29.884-5.18q3.606,3.63,7.213,7.24v5.18c-10.553,5.03-15.807,7.88-30.914,7.24,2.96,3.47,4.03,2.29,5.153,8.27l-3.092,4.14c-9.518-.71-7.176-4.4-13.4-1.03q3.092,5.685,6.183,11.38c7.549-.89,16.42.25,23.7,2.07,2.21,8.03,5.73,6.24,11.335,10.34q-0.515,3.1-1.031,6.21-4.12,2.58-8.243,5.17c3.554,4.46,5.684,4.22,6.183,12.41l-1.031,2.07-17.518,2.07c-0.214-4.46-.27-4.99-2.061-7.24-2.263,6.76-2.757,2.13-7.213,3.1,15.459,23.73-7.746,37.66-12.366,62.07a33.538,33.538,0,0,0-11.335,6.21l2.061,2.07c2.515-4.78,4.44-2.98,8.244-1.04v12.42c2.4-.35,4.809-0.69,7.213-1.04v6.21l-10.3,6.21c2.4,0.34,4.809.69,7.214,1.03v9.31l-14.427,4.14v1.03c11.679,0.86,8.323,2.35,19.579,1.04,0.343,0.34.687,0.69,1.03,1.03-0.318,9.54,2.328,6.89,3.092,17.59q-9.273.51-18.549,1.03c-2.086,4.75-4.067,6.85-5.152,13.45,7.734,5.46,7.755,15.63,14.427,21.73l7.213-4.14c1.03,1.72,2.061,3.45,3.091,5.17-0.854,5.21-2.407,5.46-1.03,7.24,5.648,8.54,8.783,18.97,14.426,27.93,2.4,0.35,4.809.69,7.214,1.04,3.335-8.74,7.751-.74,16.487,1.03,6.714-4.71,13.4-9.45,20.61-5.17,0.5,5.13.482,4.74,3.091,7.24h14.427v1.04c-1.235,6.62-4.7,5.44,1.03,8.27,2.6,4.21,7.216,5.5,10.3,9.31l-2.061,4.14c-1.03.35-2.061,0.69-3.091,1.03q-4.637-1.545-9.275-3.1c-2.913,4.01-4.464,4.51-5.152,11.38l9.274-2.07q-0.515,4.14-1.03,8.28c4.525,1.03,15.485,9.6,16.487,14.48-1.173,3.96-2.033,1.63,0,5.17h1.031c0.343-2.76.687-5.51,1.03-8.27h7.214c4.761,10.86,30.4,16.08,27.823,26.89q0.515,1.035,1.03,2.07h1.031q6.181-2.58,12.365-5.17l2.061,2.07L898,2166.28c13.574,0.44,41.1.19,47.4,4.13v8.28c6.949-1.02,12.636-3.78,13.4-11.38h7.213c1.374-2.41,2.749-4.83,4.122-7.24h-3.091c-1.6,5.5-2.958,5.55-8.244,4.14q1.031-3.63,2.061-7.24c6.051-2.04,12.085-3.24,21.64-3.11-0.944,7.6-2.046,5.59-2.061,13.45-8.852,1.54-12,4.55-16.488,10.35,0.687,1.03,1.375,2.06,2.061,3.1h1.031c11.481-4.78,24.475-12.41,38.129-3.1,1.88-7.53,9.04-7.99,15.46-10.35,1.37,1.72,2.74,3.45,4.12,5.17,4.66-2.9,5.66-6.64,9.27-10.34,10.78,0.85,14.4,2.08,21.64-3.11-0.78-8.65-4.45-9.21-3.09-16.55,6.66,0.9,6.34,2.66,10.31-1.03-4.28-3.28-10.35-3.66-13.4-8.28v-10.34c1.37-1.73,2.75-3.45,4.12-5.17h5.15c7.76,6.56,15.9,9.3,27.83,13.44,0.08,7.61.38,13.47-2.06,18.62h3.09c2.26-3.67,5.17-3.61,8.24-6.2q-0.51-10.86-1.03-21.73c7.85-1.31,7.91-4.8,12.37-7.24h14.42q4.125-3.615,8.25-7.24c6.02-1.53,7.34,2.6,10.3,3.1,16.62,2.83,37.3,1.25,50.49,10.35,0.69,2.41,1.38,4.83,2.06,7.24q8.76,5.175,17.52,10.34c0.21,13.11.68,19.18,6.19,25.87,9.55-9.79,16.01-11.61,31.94-12.42,3.72,6.54,6.38,7.24,12.37,11.38,5.46-4.72,6.62-4.32,12.36,0,1.38-1.03,2.75-2.07,4.12-3.1v-1.04c-8.93.41-12.78-.97-13.39-9.31a256.685,256.685,0,0,1,34,4.14c4.34-10.87,9.67-6.47,17.52-9.31v-4.14c-5.09-.54-10.34-2.34-12.36-6.2,1.03-1.73,2.06-3.45,3.09-5.18-4.77-3.29-6.45-6.06-9.28-11.37h-6.18c-0.83-9.22-3.14-11.42-4.12-18.63-1.72,1.73-3.44,3.45-5.15,5.18-6.82,2.28-18.48,5.65-25.77,2.07q-0.51-6.21-1.03-12.42,3.615-3.105,7.22-6.2c8.68,2.08,15.58-.05,24.73-2.07-4.36-8.77-6.42-26.24,1.03-31.04-5.11-2.91-5.53-10.3-4.12-16.55h5.15c1.18,4.02.93,4.2,4.12,6.21q-1.545-13.455-3.09-26.9h7.21c1.02-6.43,3.92-12.12,10.31-13.45q-1.035-9.825-2.06-19.65c1.71,0.34,3.43.69,5.15,1.03q2.58,4.14,5.15,8.28,2.58-1.035,5.15-2.07c-1.71-.35-3.43-0.69-5.15-1.04-1.37-15-2.32-25.93-11.33-33.1-2.63,6.27-14.23,10.11-21.64,11.38a85.766,85.766,0,0,0-10.31-8.28c-1.71,4.62-.56,3.53-6.18,4.14-0.84-5.12.69-3.08-3.09-5.17v1.03c1.77,8.3,4.3,12.19,6.18,19.66-7.45-.4-8.42.26-15.46,1.03-1.2,12.92-9.53,11.39-12.36,21.73q5.145,1.545,10.3,3.1v3.1c-0.34.35-.69,0.69-1.03,1.04a42.312,42.312,0,0,1-22.67-9.31v-4.14q2.58-1.035,5.15-2.07c-1.93-6.44-7.66-10.38-11.33-2.07q-0.525,6.21-1.03,12.42c-2.06-.35-4.12-0.69-6.19-1.04q-0.51-6.21-1.03-12.41c-6.4-.52-9.95-2.81-12.36-7.24-1.86-5.36-.44-8.16-3.09-12.42-7.88.32-12.28-.48-16.49-3.1q-3.09-8.28-6.18-16.55c-14.42,1.05-19.45,8.19-28.86,13.45-5.41,3.02-20.39-.05-21.64-3.11-0.13.26-40.75,13.76-42.25,14.49q-2.055,6.195-4.12,12.41c-3.09.34-6.18,0.69-9.27,1.03-4.61-12.07-26.79-5.48-37.1-11.38-0.09-8.27-1.88-6.76-6.18-12.41-0.69.35-1.38,0.69-2.06,1.04q-2.58,6.195-5.16,12.41c-4.98-2.09-13.66-5.9-16.48-10.35-1.44-5.37,1.47-3.91,3.09-7.24,1.83-3.77-4.16-9.77-3.09-13.45q4.11-6.72,8.24-13.44-5.145-2.6-10.3-5.18-0.52-4.65-1.034-9.31c-8.219-.74-9.071-4.11-12.366-9.31-0.079-12.91-.022-12.74-6.183-20.69h-1.03c-6.829.59-9.336,2.94-12.366,1.04v-12.42c1.606-2.9,1.516-2.41,4.122-4.13l-2.061-2.07h-6.183q-0.514-2.07-1.03-4.14c4.5-1.69,3.03-.04,4.121-5.17q-1.029-1.035-2.061-2.07v2.07c-0.686,1.72-1.374,3.45-2.06,5.17-11.78-1.2-17.555-1.08-26.793-7.24v-11.38c-7.943,2.02-7.61-2.6-13.4,1.03l-2.061,4.14c-1.717-.34-3.435-0.69-5.152-1.03q5.151-15.525,10.305-31.04c1.717-.34,3.435-0.69,5.152-1.03l-6.183-2.07v-4.14c9.217-.51,11.129.6,18.549,2.07,2.514-2.93,5.324-3.59,7.213-7.24-0.344-1.04-.687-2.07-1.031-3.11q-6.7,1.56-13.4,3.11l-4.122-8.28c1.981-1.44.617-.1,2.061-2.07h-7.213c-2.177-5.92-5.253-5.77-7.213-11.38,2.094-3.49,2.765-11.18,4.122-17.58,0.686-.35,1.374-0.69,2.061-1.04l12.365,2.07-2.061-2.07c-0.687-1.03-1.374-2.07-2.061-3.1l-8.243,2.07c-2.648-9.86-7.31-15.98-8.244-26.9h-4.122c-2.748,1.04-5.5,2.07-8.244,3.11L898,1738c0.48-13.61,3.6-13.5,1.031-23.79H898c-1.717.34-3.435,0.69-5.152,1.03v1.04q1.545,5.16,3.091,10.34l-1.03,2.07q-4.122-.525-8.244-1.03l-3.091-2.07c3.077-7.51,5.975-11.12,6.182-21.73,12.876,0.56,14.526.6,20.61-5.17,9.387,1.6,7.375,6.12,12.366,11.38h3.091q0.514-2.6,1.03-5.17c-7.149-4.3-3.67-13.13-4.121-19.66H920.67c-0.664,3.76-.416,3.13-2.061,5.17-8.077-.71-11.851,1.23-18.549,0-1-10.12-5.845-9.25-8.244-17.58,2.66-.87,5.395-1.58,7.214-3.11q-0.516-3.09-1.031-6.2c2.4-.35,4.809-0.69,7.214-1.04-3.523-3.76-8.844-9.86-7.214-15.51,2.433-6.48,9.674-6.71,13.4-12.42-2.467-3.53-3.386-3.35-4.122-9.31,5.141-5.74,7.107-8.35,15.458-11.38v-3.1q-5.667-9.825-11.336-19.66c3.3-3.9,5.681-6.46,12.366-7.24,7.838,7.41,8.026,8.84,16.488,2.07,9.793,0.48,11.923,5.18,17.518,3.1V1588c-1.2-5.18-2.619-5.87-2.061-10.34,7.108-1.61,8.522-5.23,16.487-7.25,0.408-12.18,5.536-9.04,9.275-16.55-3.435-.34-6.871-0.69-10.3-1.03,2.521,4.93,2.194,5.13-2.061,8.27-2.061-1.03-4.122-2.07-6.183-3.1v-1.03c2.2-8.69,6.276-13.2,5.152-23.8-6.539,5.06-46.624-5.28-58.737-11.38q-1.545-6.72-3.091-13.45c2.613,0.29,32.984,5.44,35.036,7.25l2.061-8.28c-2.157-7.95-7.3-10.33-9.274-17.59,1.672-3.95.9-8.48,2.061-13.44q6.182,1.035,12.365,2.06-1.545-3.615-3.091-7.24l-8.244-2.07v-4.13l18.549-6.21c1.03,1.03,2.061,2.07,3.091,3.1q-0.515,3.63-1.03,7.24h5.152c-1.315-5.7-1.985-6.92,0-12.41,4.54-.12,5.086.09,7.213-2.07v-12.41c1.905-4.71,6.88-4.98,10.305-8.28q-2.576-4.14-5.152-8.27,0.515-2.07,1.03-4.14h1.031c5.077,2.86,4.512,5.3,12.365,6.21,1.954-6.96,3.614-6.29,10.309-8.28q-1.551-4.65-3.1-9.31c4.5-1.69,3.031-.04,4.125-5.17-4.4-2.33-4.4-1.35-2.064-5.18,0.687-1.38,1.374-2.75,2.064-4.13,5.55,0.52,6.39.8,10.3-1.04v-1.03c-0.34-1.73-.69-3.45-1.03-5.18-3.13-3.53-8.89-4.22-11.334-8.27q1.551-2.07,3.094-4.14-2.07-2.07-4.125-4.14c-3.321,2.89-4.262,7.13-8.244,9.31-8.169-7.49-9.683-9.19-21.64-6.2-2.808-5.91-4.344-10.48-7.213-16.56-0.687.35-1.374,0.69-2.061,1.04l-1.03,9.31c-11.306,1.29-16.191,7.9-25.762,10.34-5.535-4.22-9.471-8.05-14.427-12.41v3.1c2.27,3.07,2.938,2.48,4.122,7.25-2.419,1.86-2.936,2.22-6.183,1.03q-3.091-3.615-6.183-7.24c-1.65,2.05-1.337,1.44-2.061,5.17l-5.152-2.07q1.03-7.755,2.061-15.52c5.112-.57,6.61-1.4,9.274-4.13l-9.274-10.35c-6.092,1.05-12.848,2-16.488-2.07-0.343-1.03-.687-2.07-1.03-3.1q5.153-1.545,10.305-3.1c-4.188-19.66,22.809-54.92,38.127-65.18-3.884-7.21-2.946-13.89,1.031-20.69,13.126-3.01,13.848-14.89,20.609-23.79-10.331-14.96-17.072-31.31-22.67-48.62-10.053-.83-18.551-6.01-29.884-9.31,0.572-5.15-.2-4.01,3.091-6.21q9.274-1.545,18.549-3.1v-1.03c-2.884-2.77-3.091-2.91-2.061-7.25,11.99-1.55,27.951-25.81,42.249-31.03,0.344,0.34.687,0.69,1.031,1.03q-0.516,4.14-1.031,8.28l4.122-2.07c0.677-6.64,4.308-13.84,7.214-19.65-3.028-2.13-2.514-1.5-7.214-1.04v-3.1q1.547-2.6,3.092-5.17c6.9-.93,9.292-1.9,15.457-4.14l2.061,4.14,2.061-2.07c-2.838-5.91.581-10.28-7.214-14.49-2.835,2.38-4.31,2.59-6.182,6.21-5.161-1.68-5.679-4.3-9.275-7.24-2.06,1.03-4.122,2.07-6.183,3.1l-2.06-2.07c4.542-9.98,14.675-5.6,22.67-11.38l8.244,4.14c1.374-1.03,2.748-2.07,4.122-3.1v-3.1c-7.73-4.68-19.876-2.34-25.762-9.32,4.338-4.78,7.776-6.94,5.152-13.44-7.921-.93-9.446-2.44-12.366-8.28,2.405-1.03,4.81-2.07,7.214-3.1v-1.04l-1.031-2.07c-2.4.35-4.809,0.69-7.213,1.04-6.282,13.47-14.327,15.53-28.853,20.69a11.654,11.654,0,0,1-4.122-4.14c0.687-1.72,1.374-3.45,2.061-5.17,5.508-.03,8.509-0.64,11.335-3.11q-5.153-4.125-10.305-8.27H921.7q-1.031,5.175-2.061,10.34h-4.122c-0.343-.34-0.687-0.69-1.03-1.03,1.214-7.47,1.653-12.55-4.122-17.59,1.079,4.84,1.7,4.2-4.122,5.17q-4.636-3.615-9.274-7.24c0.343-1.72.687-3.45,1.03-5.17,1.717-.34,3.435-0.69,5.153-1.03-3.485-2.02-3.054-1.66-4.122-6.21-5.123.27-8.962,0.33-11.336-2.07-0.343-.34-0.687-0.69-1.03-1.03,1.586-4.79,11.134-14.384,15.457-16.556,5.575-2.685,13.527-2.832,17.518-1.034l2.061,4.138,2.061-1.035c1.663-9.756,7.805-15.908,18.549-16.551,1.513,5.1,4.716,7.443,8.243,10.344l4.122-2.068-3.091-11.38c5.107-.35,5.687-0.643,8.244-3.1q-0.516-1.035-1.031-2.069h-4.122l-5.152,6.207-4.122-1.035c1.379-5.585,2.34-7.428,0-12.414L938.188,958q1.545-3.621,3.091-7.241c7.059,2.492,10.288,10.6,17.518,9.31l7.213-3.1v-3.1l-5.152-6.207v-1.034l10.305,1.034c0.8,4.571.622,3.843,3.091,6.207l3.092-2.069c-2.126-2.288-1.424-1.947-5.153-3.1,4.954-15.06,19.5-20.435,27.827-32.069-3.393-6.419-7.725-17.016-14.431-20.69-10.359,7.177-19.924,5.3-32.975,1.034-0.417-4.169-.337-4.046-2.061-6.206l-9.274,2.069-2.061-6.207c-5.421,3.283-5.749,7.976-10.3,11.379-3.93-.1-4.188-1.083-8.243-3.1-1.039,6.167-2.252,6.334-8.244,7.242L911.4,901.1V898c11.435-10.5,10.836-22.865,13.4-37.241l16.487-8.276c-7.923-6.075-19.182-13.435-20.609-26.9,3.152-5.006,5.89-7.133-2.061-9.31q-1.547-5.69-3.092-11.38c5.922-3.054,6.363-5.441,9.275-11.379-3.806-2.005-3.2-1.118-4.122-6.207,6.981-7.51,15.729-9.968,23.7-17.586-3.468-2.579-4.253-2.494-3.091-7.241,11.014-1.567,11.036-8.257,22.67-9.311q-2.059-3.62-4.121-7.241c-4.138,1.021-3.422,2.175-6.183,0-5.446-6.25-12.549-7.462-16.488-15.517-3.926,1.946-5.683,3.063-10.305,2.069l-3.091-6.207c-5.317,3.81-23.8,12.257-25.762,3.1,3.391-4.258,4.9-4.113,11.335-3.1l-10.3-4.138c-0.343-6.3-.386-5.723-4.122-8.276a18.2,18.2,0,0,1-15.457-2.069V698.345c4.585-2.321,5.952-3.383,10.3-1.035q0.516-3.1,1.031-6.207h6.183q0.514-3.1,1.03-6.206c10.01,0.29,7.334-.06,12.366-5.173l9.274,4.138c-5.222-6.63-14.825-25.775-7.213-36.207l4.122-6.207,8.244,1.035q1.029,3.62,2.06,7.241c2.488-3.228.3-2.632,5.153-4.138,4.712,3.132,6.43,6.432,9.274,11.379,2.956-1.938,4.566-2.644,6.183-6.206l-10.3-2.069c0.631-11.555,9.255-7.571,16.488-11.38-5.36-1.869-6.748-3.479-7.214-10.345,4.983-1.418,10.913-4.189,13.4-8.275,1.391-2.589,1.8-3.643,1.03-6.207-1.435-1.989-.1-0.62-2.061-2.069l-17.518-2.069v-3.1q1.545-3.62,3.091-7.241c6.167,1.013,6.427,2.113,11.336,0,0.088-6.275.608-6.522-4.122-8.276-2.581,3.57-14.363,5.85-20.61,6.207-2.031-4.45-6.846-7.381-10.3-10.345v-3.1c3.79-2.672,4.755-4.09,6.182-9.311h4.122l3.092,5.173-2.061,8.276,2.061,2.069,12.365-11.38,7.214,2.069v-1.034L948.492,564.9c2.788-4.51,4.527-8.526,10.305-10.344,2.384,4.666,3.275,6.017,9.274,7.241q0.516-.518,1.031-1.034c-2.074-9.571-.931-10.124,4.122-16.552,13.023,1.21,27.146,12.978,38.126,8.276-1.58-3.826,7.08-27.5,9.28-30,7.51,2.577,7.65,9.819,13.39,12.414,7.39,3.338,15.09,1.069,20.61,4.137v5.173H1040.2c0.35,1.724.69,3.448,1.04,5.172l19.57-3.1c-1.23-8.92-5.07-25.444-2.06-27.931l5.16-1.035c12.59,13.661,12.95,15.922,35.03,19.655,0.35,1.38.69,2.759,1.03,4.138-1.72,1.035-3.43,2.069-5.15,3.1,1.37,2.069,2.75,4.138,4.12,6.207l-6.18,3.1c0.34,1.724.69,3.449,1.03,5.173h5.15q-1.035,5.688-2.06,11.379c8.23,1.086,8.5,5.273,13.4,9.31,1.37-.344,2.74-0.69,4.12-1.034,0.34-2.414.69-4.828,1.03-7.242,14.33,0.484,13.89-4.7,17.52-14.482v-1.035c-5.31,2.091-4.23,4.435-10.31,6.207q2.07-4.654,4.12-9.31c-3.06-5.165-4.04-6.062-10.3-8.276v-3.1c0.69-.689,1.37-1.379,2.06-2.069q2.58-.516,5.15-1.034,0.525,3.1,1.03,6.207l3.09-1.035,5.16-9.31c-5.76.4-6.03-.186-10.31-3.1q-1.02-3.621-2.06-7.242c4.74-2.71,4.32-3.683,6.18-9.31,6.27,0.127,7.57,1.15,11.34,3.1,3.67-6.651,16.44-18.09,24.73-19.655l3.09,1.035v7.241h7.22c0.75,10.55,5.04,8.483,6.18,18.621-2.88,4.184-6.68,7.468-4.12,11.379,2.33,9.985,7.12,27.276,16.48,31.035,0.2-6.313-1.5-4.824-3.09-11.38l8.25-9.31h4.12a29.87,29.87,0,0,0,14.43,14.483c1.37-.345,2.74-0.69,4.12-1.035q1.02-3.1,2.06-6.207c7.81-.336,19.23-2.875,21.64-5.172-6.77-9.906-6.42-23.718-3.09-38.276q2.565,0.517,5.15,1.034c3.75,9.479,5.79,22.127,10.3,26.9,1.03-.69,2.06-1.379,3.1-2.069v-2.069q0.51-3.1,1.03-6.207l20.61,1.035c4.21-9.691,10.24-9.493,18.54-12.414-3.11-5.506-4.88-10.362-9.27-14.483,4.58-11.854,10.97-15.317,14.43-27.931h1.03c5.73,1.741,5.56,3.635,13.39,4.138l17.52-13.448q-2.055-4.654-4.12-9.311c4.35-2.973,6.35-4.6,7.21-11.379-3.77-3.507-9.97-5.41-13.39-9.31v-1.035c6.24-.281,6.5-0.772,9.27-4.138-0.69-1.379-1.37-2.759-2.06-4.138q-4.635-1.033-9.28-2.069V418c-14.27-.59-13.97-8.037-21.63-14.483q-3.1,1.553-6.19,3.1c-1.78-6.821.33-16.832-4.12-22.759-1.72,2.069-3.43,4.138-5.15,6.207q-2.58-.518-5.15-1.035c-10.48-4.852-14.73-16.414-17.52-28.965L1249.39,358c-0.34.689-.69,1.379-1.03,2.069,3.1,4.49,5.83,3.816,7.21,10.345-0.34.689-.68,1.379-1.03,2.069l-9.27,1.034q-2.58-4.655-5.15-9.31l3.09-8.276c-0.69-.69-1.38-1.379-2.06-2.069h-8.25c-1.96,1.87-2.86,3.494-5.15,5.172l-6.18-3.1q-0.525-3.1-1.03-6.207l-17.52,4.138c-4.85-4.186-6.98-7.614-10.31-13.448l-9.27,2.069v-4.138q1.035-5.69,2.06-11.379l-9.27,2.068c0.38-8.038-1.9-11.839-8.25-15.517-4.05.878-5.25,0.125-9.27-1.034-0.89,4.195-1.71,6.819-4.12,9.31-21.94-10.647-27.29-6.691-49.47-4.138-5.47-3.792-8.54-4.761-11.33-11.379h-1.03c-0.34,2.413-.69,4.828-1.03,7.241-9.68.056-9.56-2.224-14.43-6.207q-4.125,2.069-8.24,4.138-0.525,4.654-1.03,9.311l-8.25,2.069c-1.71,7.124-7.15,12.7-11.33,17.586,3.11,6.312,5.06,5.212,3.09,12.414h4.12c2.19-3.167.67-5.18,4.12-8.276q3.615,2.586,7.22,5.172v3.1c-2.06,1.034-4.13,2.069-6.19,3.1V361.1Zm-12.36-47.586c-1.08,4.13-.4,7.465,1.03,11.379,1.37-1.723,2.75-3.448,4.12-5.172V318.69C1051.47,315.948,1051.81,315.305,1048.45,313.517Zm12.36,4.138v0Zm-23.7,2.069c0.69,1.034,1.38,2.069,2.06,3.1,0.35-1.035.69-2.07,1.03-3.1h-3.09Zm1.03,6.207c-3.97,3.324-6.31,2.367-8.24,8.276h3.09c1.99-3.131.21-1.675,4.12-3.1v3.1l-3.09,11.379c3.23,2.617,4.67,6.061,8.25,8.276l3.09,1.034c0.34-.344.68-0.689,1.03-1.034v-4.138q-3.615-3.1-7.22-6.207c2.81-7.291,8.67-8.168,5.16-16.551ZM879.451,336.276q2.059,2.586,4.122,5.172l2.061-2.069q-1.032-1.551-2.061-3.1h-4.122Zm697.629,9.31c0.47,2.766-.63,1.561,2.06,4.138Q1578.12,347.656,1577.08,345.586Zm-752.245,2.069c-0.592,3.607-.364,3.036,1.031,6.207h3.091l1.031-2.069C828.016,349.01,828.308,349.152,824.835,347.655Zm21.64,7.241c-2.426,1.949-4.387,2.094-9.274,2.069q0.516,1.035,1.031,2.069l8.243,3.1V354.9ZM1538.95,562.828c-0.75,8.917.26,16.914-2.06,25.862l-16.48,1.034q-0.525,4.654-1.03,9.31-4.65-.516-9.28-1.034c-0.34,2.758-.69,5.517-1.03,8.276v1.034h5.15c-0.98,13.86.93,14.369,3.09,28.966-0.34.345-.68,0.69-1.03,1.034h-5.15c-0.34-1.379-.69-2.759-1.03-4.138l-6.18,3.1c0.69,0.689,1.37,1.379,2.06,2.069l6.18,5.172-3.09,11.379c34.38-5.5,37.22-15.111,52.55-38.275,9.7-.529,15.92-6.063,24.74-9.311,1.87-8.92,2.76-12.527,9.27-19.655,13.41-.6,22.58-0.822,31.94,4.138-1.58,14.3,7.99,11.558,11.34,22.759q-5.145,6.205-10.3,12.413c-1.41-2.345-1.5-2.044-2.07-6.206l-6.18,3.1-3.09,26.9c-6.99,1.514-7-1.731-11.33,3.1-2.02,1.452-15.37,10.1-16.49,11.379-4.14,4.689-1.24,9.059-7.22,12.414-1.37.345-2.74,0.69-4.12,1.035q1.035-3.1,2.06-6.207c-13.43-.063-12.39,3.154-22.67,4.138-4.81-3.024-2.83-4.821-7.21,0l-11.34,7.241,2.07,3.1c5.31,1.4,7.52,1.8,8.24,8.276-3.51,2.58-3.93,7.524-3.09,11.38h2.06q5.67,1.033,11.33,2.069v4.137Q1557,718,1554.41,723.172c-7.09-.891-15.37-4.017-19.58,2.069-2.46,6.538,1.82,10.02,2.06,14.483q-2.565,8.275-5.15,16.552c-0.72,7.118,3.63,20.011,2.06,30-7.9,9.864-24.48,12.513-34,20.69,0.91,8.357,4.71,9.9,3.09,17.586h-6.19c-1.55,10.338.63,11.02-2.06,20.689q4.635,3.1,9.28,6.207-1.035,3.1-2.06,6.207c-7.83-.345-8.01-2.1-11.34,1.035,10.6,9.543-14.52,18.36,12.37,24.827q1.02,9.826,2.06,19.655c-5.24,1.609-5.25,2.764-8.25,6.207q2.07,11.379,4.13,22.759c2.4,0.689,4.81,1.379,7.21,2.069q-2.58,9.827-5.15,19.655h-4.12c-1.03-2.069-2.07-4.138-3.1-6.207v2.069c-1.6,4.754.72,6.682,2.07,11.379-2.41,1.38-4.81,2.759-7.22,4.138,2.91,5.012,5.26,8.068,8.25,13.449,11.99-4.455,23.81-6.194,38.12-7.242,4.01,3.366,5.84,4.956,6.19,12.414-8.81,4.514-14.31,9.431-24.74,11.379-0.34,5.129-.64,5.709-3.09,8.279-5.59-.79-9.23-3.12-14.42-1.04v1.04c9.81,0.36,16.12,4.65,20.61,10.34q-1.545,5.175-3.1,10.35l18.55-2.07c4.45,6.3,9.91,12.33,15.46,15.52v4.13c-5.87,4.64-8.09,11.43-17.52,12.42,1.65,3.3,2.14,5.12,1.03,9.31h-5.15c3.09,10.84-.2,17.35,3.09,26.89h-4.12q-4.125-1.035-8.24-2.07c1.79,5.16,5.23,6.52,8.24,10.35v1.03c-13.9-2.41-13.06,1.97-25.76,4.14-3.89-6.99-12.1.93-10.31-11.38-2.74-1.03-5.49-2.07-8.24-3.1l-10.31,2.07c1.4,3.13,2.57,5.59,1.04,9.31-3.19,6.92-12,10.91-17.52,15.52-20.63-.76-26.62-3.79-41.22-7.25-8.15-1.92-9.09,6.78-17.52,3.11-2.23-7.72-5.56-8.02-4.12-18.62-5.69.88-10.72,3.44-14.43,0-4.3-3.88-3.77-6.29-3.09-13.45-17.47,2.02-26.32-1.43-39.16-11.38l-3.09,2.07c-4.36,14.76-18.45,19.35-31.94,21.72,2.51,3.49,3.58,5.01,2.06,10.35-13.38,1.12-16.88-1.04-27.83-5.17-1.45,5.58-3.44,7.11-9.27,8.27q2.055-4.65,4.12-9.31c-5.23-5.73-21.59-9.07-27.82-9.31-0.34,3.45-.69,6.9-1.03,10.35,6.63,0.23,9.16,1.74,12.36,5.17-1.44,3.52-1.38,3.18-4.12,5.17-9.5-4.31-39.09-6.02-49.46-4.14v2.07c-0.59,2.49,1.59,7.3,3.09,11.38-3.29,5.1-6.35,9.26-9.27,15.52,1.65,4.93,5.55,10.36,10.3,12.41v4.14c-1.72,1.03-3.43,2.07-5.15,3.1h-3.09c-0.03-5,.97-4.33-1.03-6.2-5.3-4.49-9.61-5.89-17.52-8.28,0.34-2.76.69-5.52,1.03-8.28-7.93-1.31-6.74-2.86-8.24-8.27h-6.19q-0.51-5.175-1.03-10.35c-2.06-1.03-4.12-2.07-6.18-3.1-1.68,2.85-3.05,3.02-5.15,5.17-6.92,30.79-31.4,36.68-40.19,68.28-16.87-1.01-5.11,6.55-4.12,16.55q-5.67-1.545-11.34-3.1-3.09,6.195-6.18,12.41c1.37,2.41,2.75,4.83,4.12,7.24,8.06,0.96,10.57,4.5,16.49,7.24,0.69-2.41,1.37-4.82,2.06-7.24,10.37,0.88,9.06,5.29,19.58,6.21q-0.525,6.72-1.03,13.45h1.03v-2.07c4.22-4.09,1.27-7.98,5.15-12.42,4.82-1.35,8.72,1.53,12.37,4.14-0.29,13.57,1.61,10.79,3.09,21.73-0.69,1.03-1.38,2.07-2.06,3.1h-1.03c-2.06-.69-4.13-1.38-6.19-2.07,0.23-3.44.96-2.38-1.03-5.17h-1.03c-0.62,12.07-6.49,24.18,2.06,30,13.74,4.85,9.44-2.05,21.64,7.24q1.035,2.07,2.06,4.14c0.69-.35,1.38-0.69,2.07-1.04,4.18-9.1,10.52-14.53,15.45-24.82,11.2,0.76,9.91,7.58,16.49,10.34,3.21,1.34,6.11-.46,9.27,1.03q2.07,4.665,4.13,9.32c-0.35,1.03-.69,2.06-1.03,3.1l-8.25-2.07v6.21h6.18v14.48c8.31,1.78,11.75,5.3,17.52,9.31,1.14,15.15,6.34,19.45,10.31,32.07l8.24,2.07c3.02-3.15,2.13-4.31,7.21-3.11,3.96,9.95,12.21,9.73,17.52,17.59-0.62,4.09-.75,3.39,2.06,6.21,9-2.07,15.13,3.11,22.67,5.17,7.24-10.09,25.55-23.81,34.01-34.14-1.3-3.13.02-1.24-2.06-3.1-3.58-3.79-6.91-2.94-10.31-5.17-0.32-2.78.4-2.48-2.06-5.18-2.74,1.04-5.49,2.07-8.24,3.11,1.37-1.73,2.75-3.45,4.12-5.18,1.6-5.42,2.54-3.96,1.03-8.27q-5.67-1.56-11.33-3.1c0.62-4.79,1.39-6.1-1.03-9.32-2.06.69-4.13,1.38-6.19,2.07v-4.13l7.22-5.18h3.09q2.58,3.63,5.15,7.24c1.03-.68,2.06-1.37,3.09-2.06q-1.035-5.175-2.06-10.35h6.18l14.43,4.14c-1.44-3.72-2.07-6.23-1.03-10.35h5.15c1.03,1.73,2.06,3.45,3.09,5.18q6.195,0.51,12.37,1.03c0.34-2.76.69-5.52,1.03-8.27l-3.09-2.07h-1.03q-1.035,3.615-2.06,7.24c-3.75-.67-3.12-0.42-5.16-2.07h-2.06c1.18-8.57.71-11.51,0-20.69,0.69-.35,1.38-0.69,2.06-1.04q18.555-5.16,37.1-10.34c0.69,1.03,1.38,2.07,2.06,3.1-1.55,4.77-1.77,6.78,0,10.35,6.42,1.58,19.22,26.61,25.76,33.1,5.51,5.46,14.32,7.28,18.55,11.38,2.42,4.77,2.28,11.7,0,15.52h3.09c3.05-4.74,17.08-2.98,21.64-2.07,2.83,2.52,3.48,2.93,3.1,6.21,3.45-1.7,2.64-2.72,6.18-2.07,4.02,2.27,2.97,3.68,8.24,5.17,3-3.13,2.26-4.51,7.22-6.21l6.18,10.35q-4.635-1.035-9.28-2.07c-0.34.69-.68,1.38-1.03,2.07,1.38,2.07,2.75,4.14,4.13,6.2q4.635-3.09,9.27-6.2,2.58-13.455,5.15-26.9c-1.71-.34-3.43-0.69-5.15-1.03,0.78-6.09,1.09-8.18,7.21-9.31v-10.35c1.38-.69,2.75-1.38,4.13-2.07,5.85,1.3,4.48,2.75,10.3,4.14,0.88-5.69,1.09-5.83,6.18-7.24q-2.055-4.65-4.12-9.31c8.01-.91,9.39-3.57,15.46-1.04,2.75,4.51,4.21,5.81,6.18,12.42q4.635,1.035,9.28,2.07c0.59,5.05.72,5.56-1.04,9.31,0.35,0.69.69,1.38,1.04,2.07h5.15c1.4,14.45.46,17.74-3.09,28.96-2.06.35-4.13,0.69-6.19,1.04q2.58,2.58,5.16,5.17c0.06,10.52-2.93,11.12-7.22,16.55-0.2,11.51,4.02,13.35,3.09,23.79-6.96,8.18-23.07,8.75-28.85,17.59,6.58-.57,7.64,4.36,11.34,9.31q5.145-2.58,10.3-5.17v-1.04c-2.06-1.03-4.12-2.07-6.18-3.1v-3.1q2.565-3.1,5.15-6.21h4.12c3.78,5.92,11.1,7.94,15.46,13.45-0.56,20.37-14.92,22.64-20.61,37.24-7.87,20.2-1.96,35.52-13.4,52.76h-7.21q-1.035,7.755-2.06,15.51c5.89,1.15,5.94,1.71,6.18,8.28-0.34.69-.69,1.38-1.03,2.07h-1.03q-5.145-1.56-10.3-3.1,0.51,2.58,1.03,5.17c15.47,1.36,20.22,11.93,32.97,17.58-0.69,2.07-1.37,4.14-2.06,6.21-4.63,1.51-5.77,2.7-8.24,6.21q3.09,3.615,6.18,7.24a253.31,253.31,0,0,0-3.09,38.28h1.03l9.27-6.21h15.46c24.9-17.72,15.88-43.2,60.8-25.86,1.41,7.59,4.14,6.2,5.15,14.48q-5.67-1.56-11.33-3.1c1.04,13.18-8.47,20.67-17.52,25.86-1.72.34-3.44,0.69-5.15,1.03v-6.2c-1.04-.69-2.07-1.38-3.1-2.07-2.4,1.03-4.81,2.07-7.21,3.1,3.59,1.89,2.77.87,4.12,5.17-20.8.45-19.3,26.03-44.31,19.66,1.94,3.84,4.08,5.59,8.25,7.24-0.68,4.36-3.11,5.26,0,7.24,6.92,8.22,19.42,3.84,22.67,15.52-8.17,13.81-18.36,22.63-34.01,28.96,1.13,5.75-1.8,8.96-4.12,14.49-3.09.34-6.18,0.69-9.28,1.03h12.37a93.981,93.981,0,0,0-2.06,25.86q-4.125,3.105-8.24,6.21c4.02,6.72,11.06,12.19,12.36,20.69-0.69.69-1.37,1.38-2.06,2.07-9.5-2.3-10.46,4.17-17.52,7.24,0.35,1.38.69,2.76,1.03,4.14,8.79,0.39,8.08.88,15.46,0v4.14c-7,4.04-16.72,8.61-20.61,15.51,10.49,2.4,16.74,5.21,28.85,6.21v5.17q-0.51,2.6-1.03,5.17c-3.09-.34-6.18-0.69-9.27-1.03v6.21c0.69,0.34,1.37.69,2.06,1.03,5.08-3.34,9.06-3.52,14.43-6.21,1.11-4.87,1.15-4.82,1.03-11.38,8.97,0.56,12.81,4.53,18.55,2.07,3-9.75,10.22-18.5,21.64-19.65q6.18,5.685,12.36,11.38c2.75-.35,5.5-0.69,8.24-1.04-0.34-1.72-.68-3.45-1.03-5.17,9.79-.74,7.76-4.53,16.49-6.21q4.125,3.63,8.25,7.25c13.4-3.56,27.6-8.33,42.24-1.04-0.39,17.54.26,31.24,8.25,43.45,12.61-1.12,10.92-6.12,24.73-4.14,0.62-8.08,12.29-19.47,16.49-26.9-3.57,1.52-3.97,3-7.22,0-2.18-7.01-6.26-13.87-7.21-21.72q4.125-6.21,8.24-12.41c-2.9,1.8-2.64,2.24-7.21,3.1-3.07-3.83-3.84-4.79-3.09-10.34q6.7-2.07,13.4-4.14c-3.4-4.64-7.48-12.27-12.37-15.52-7.14,3.62-18.04-2.35-21.64-8.28-0.34-1.03-.69-2.06-1.03-3.1,3.44-1.99,4.46-2.77,10.3-3.1-7.4-14.66-8.78-24.2,6.19-36.21v-5.17c3.43,0.34,6.87.69,10.3,1.03,0.26-8.85,2.67-13.25,7.22-17.58,5.26-.81,8.23.84,11.33,1.03,1.37-2.07,2.75-4.14,4.12-6.21-8.49-3.55-7.44-11.33-9.27-19.65h-4.12c-3.58,2.79-4.34,4.92-7.22,8.27q-5.145-4.125-10.3-8.27c0.99-8.29,3.98-7.12,5.15-15.52q-4.125-2.58-8.24-5.17c1.74-5.77,5.32-7.05,12.36-7.24-5.51-9.44-16.65-15.51-19.58-25.86q4.125,1.035,8.25,2.06c-2.26-5.46-1.25-8.73,1.03-14.48-5.92-1.12-6.22-2.52-7.22-8.27,5-4.3,2.09-8.88,3.1-16.56,2.06-.34,4.12-0.69,6.18-1.03q4.635,3.615,9.27,7.24c6.62-2.78,13.71-2.42,19.58-6.21-3.37-6.38-2.78-9.44,1.03-15.51,17.33,1.07,19.79-6.33,27.83-16.55-0.35-1.04-.69-2.07-1.03-3.11h-6.19c0.43,5.03,1.55,5.46-1.03,8.28l-6.18,4.14q-2.58-4.14-5.15-8.28c3.03-5.13,5.08-7.27,3.09-12.41-6.02,1.7-6.85,3.47-12.37,1.03-0.94-3.78.04-2.11-2.06-4.14-4.98-.53-7.94,4.38-14.43,1.04-1.18,12.52-4.11,18.45-8.24,31.03h-5.15c-2.48-6.43-6.52-7.31-8.25-14.48,5.73-.09,4.05,1.19,7.22-2.07v-1.03h-5.15c0.63-7.76.15-12.55,2.06-18.63,7.42,0.45,7.85.02,13.39-2.06v-1.04q-2.565-4.14-5.15-8.27c-8.74,4.13-14.74-1.34-25.76-2.07a24.045,24.045,0,0,1,7.21-16.56c12.88,1.74,20.91,4.57,29.89-3.1-2.65-5.55-5.77-6.12-7.22-12.41,0.35-.69.69-1.38,1.03-2.07h1.03c8.97,2.94,14.58,9.79,17.52,18.62,5.01-2.81,9.74-3.26,16.49-1.04,0.69-2.75,1.37-5.51,2.06-8.27l-6.18-2.07c-0.2-17.32.19-45.05-16.49-51.72,2.22-5.88,5.42-5.48,7.21-12.42-0.68-.69-1.37-1.38-2.06-2.07-16.69.79-25.96-.76-36.06-8.27v-5.18c9.9-.31,15.17-5.57,22.67-9.31,2.75,2.86,3.6,5,7.21,7.25,1.37-1.38,2.75-2.76,4.12-4.14-2.72-3.88-5.88-5.58-8.24-9.31,0.34-.69.68-1.38,1.03-2.07,2.75,0.34,5.49.69,8.24,1.03-5.92-7.2-10.5-2.28-19.58-4.13v-1.04q1.035-4.14,2.06-8.28c0.69-.34,1.38-0.68,2.06-1.03,7.31,1.45,4.51,4.86,9.28,1.03h5.15q1.035-2.58,2.06-5.17c-3.51-4.08-8.15-4.77-10.3-10.34l6.18-2.07c-1.37-2.07-2.75-4.14-4.12-6.21,4.71-3.66,9.77-3.18,12.36-9.31q-3.6-11.37-7.21-22.76c1.72-1.03,3.44-2.07,5.15-3.1-1.37-.35-2.75-0.69-4.12-1.04-1.37,1.38-2.75,2.76-4.12,4.14v7.24h-1.03c-2.06-1.38-4.12-2.75-6.18-4.13-1.38-2.42-2.75-4.83-4.13-7.25,0.35-1.37.69-2.75,1.03-4.13,7.65-.3,6.1-2.13,12.37-5.18-1.04-6.43-2.35-8.28,0-13.44,5.25,0.15,12.3.25,14.43-2.07,0.68-.69,1.37-1.38,2.06-2.07-0.35-.69-0.69-1.38-1.03-2.07-6.35-1.18-10.45-2.39-12.37-8.28-11.1,5.16-18.12-3.21-29.88,0q-0.525,5.175-1.03,10.35c-12.68,4.76-22.31,3.85-32.98,1.03-2.83-12.15,6.68-9.74,14.43-14.48q2.055-4.14,4.12-8.28c5.79-2.02,7.9,1.53,13.4,3.11q0.51-5.175,1.03-10.35a19.521,19.521,0,0,0,13.39-7.24h-7.21c0.22-4.67.73-5.58,2.06-8.27,7.51-3.13,10.05-6.57,20.61-5.18v-1.03c-3.32-4.94-3.75-9.34-4.12-15.52h-10.31c-2.13-6.44-5.31-6.19-7.21-12.41,0.34-.69.69-1.38,1.03-2.07,8.88,0.17,8.87,2.38,13.4,6.21,7-4.07,10.71-2.71,19.58-3.11q3.6-8.265,7.21-16.55-4.125-2.58-8.24-5.17,4.635-10.35,9.27-20.69c-6.98,1.93-11.32,6.65-19.58,8.27,0.34-2.75.69-5.51,1.03-8.27h5.15v-1.04c-5.88-9.78,7.93-15.13,14.43-21.72-0.69-.69-1.37-1.38-2.06-2.07-4.49,3.04-14.57,4.03-20.61,1.04,0.3-7.3.53-6.96-2.06-11.38-1.37-.69-2.75-1.38-4.12-2.07-1.03,1.03-2.06,2.07-3.09,3.1v1.03c5.11,0.51,4.71.49,7.21,3.11-1.01,8.49-3.46,7.32-8.24,11.38q2.055,1.035,4.12,2.07c-1.03,2.07-2.06,4.13-3.09,6.2l-8.25,4.14h-4.12c-7.65-15.3-15.2-27.25-7.21-43.45,9.7-1.17,14.96-3.59,20.61-8.27,3.37,1.19,2.8,1.43,5.15,3.1,2.97-3.8,3.59-7.19,7.21-10.34-3.22-7.81-7.28-11.75-8.24-21.73,4.7-3.16,10.26-10.18,6.18-18.62-1.4-2.12-1.15-1.66-3.09-3.1-2.82,2.98-1.28,3.6-6.18,5.17-7.32-4.17-12.05-10.79-19.58-15.52q0.51-3.105,1.03-6.2c5.48-.314,11.79.445,12.36,0q1.035-3.621,2.06-7.242-5.145-3.1-10.3-6.206V972.483c-2.4-.69-4.81-1.38-7.21-2.069-2.06-1.724-4.13-3.449-6.19-5.173q1.035-7.24,2.06-14.482c8.32,0.329,12.39-.665,16.49-4.138-2.84-3.082-3.75-2.1-5.15-7.242,1.93-4.725,1.08-6.084,7.21-7.241,5.28,4.482,5.84,3.432,13.4,5.172-0.34,3.1-.69,6.207-1.03,9.311l3.09-2.069c3.05-11.655,2.09-20.583,7.21-30,8.63,0.6,9.23.555,14.43-3.1,0.34-.689.69-1.379,1.03-2.069-2.25-6.118-2.26-11.4-10.3-12.414,2.58-5.716,10.54-7.481,14.42-12.413q-4.11-3.1-8.24-6.207c0.34-1.379.69-2.759,1.03-4.138,0.69-.345,1.37-0.69,2.06-1.035,8.97-1.017,11.19,3.88,21.64,1.035-2.28-9.282-9.42-14.1-15.46-19.655-0.68.344-1.37,0.689-2.06,1.034-0.34,1.379-.68,2.759-1.03,4.138-1.37-1.034-2.75-2.069-4.12-3.1-1.72-10.264-8.97-7.379-12.37-16.552-4.05,2.353-7.13,3.2-14.42,3.1-1.42,7.152-11.21,13.2-16.49,9.311-4.92-3.426-8.29-9.65-13.4-13.449-10.09,4.362-11.03-.474-21.64-3.1v-4.138l8.25-12.414c2-7.747-6.96-14.8-1.03-21.724h6.18c2.02,5.545,3.94,6.674,5.15,12.414-5.44,1.975-3.45-.149-4.12,5.172,0.69,1.035,1.37,2.069,2.06,3.1l6.18-1.035v-5.172L1724.44,808c-1.43-9.752,2.15-7.086,4.12-16.552-4.78,2.487-6.81,2.991-13.39,2.069l-2.07-10.345c5.93-2.859,19.7-6.657,25.77-11.379-0.35-.69-0.69-1.379-1.03-2.069-6.26-.066-7.79-1.025-11.34-3.1v-1.035q2.055-5.689,4.12-11.379,5.16,2.586,10.31,5.172c1.37-1.724,2.75-3.448,4.12-5.172q-3.615-5.172-7.21-10.345c-11.29,1.782-20.86,4.132-31.95,2.069-0.03,3.5.62,3.287-2.06,6.207h-4.12c-4.38-7-7.99-8.339-16.49-11.379v-4.138c1.37-1.38,2.75-2.759,4.12-4.138,10.66-.388,16.55-5.149,25.76-3.1,0.71-7.49,2.59-6.141,4.13-12.414-4.28-4.077-5.6-11.491-10.31-14.482-4.39-2.789-8.75.258-11.33-4.138-13.16-22.4-9.72-21.355-29.89-37.242-0.54-13.628,2.68-8.846,6.19-14.482q0.51-4.656,1.03-9.311l9.27,1.035c-1.49-6.759-3.35-3.932-5.15-10.345,0.34-.69.68-1.379,1.03-2.069,12.89,1.6,26.78,4.228,35.03-6.207q-0.51-2.586-1.03-5.172l9.28-1.035c0.69-3.1,1.37-6.207,2.06-9.31,6.85,0.444,7.45,1.484,11.33,0v-1.035c-0.34-1.379-.68-2.758-1.03-4.138h-1.03c-2.4.69-4.81,1.38-7.21,2.069-0.34-.344-0.69-0.689-1.03-1.034v-4.138c4.45-2.728,6.65-4.053,14.43-4.138-1.24-13.737,12.26-25.8,15.45-40.345q-4.11,1.035-8.24,2.069a35.949,35.949,0,0,0-11.34-14.483c-5.86,7.753-21.36,3.5-26.79-1.034v6.207h-8.24q-1.035,4.137-2.06,8.276l-8.25-2.069q-2.055,4.655-4.12,9.31h-4.12q-2.055-6.723-4.12-13.448c8.43-3.761,14.15-5.973,19.58-12.414q-2.07-4.654-4.13-9.31c4.04-2.49,6.51-5.274,7.22-11.38,14.31-.319,21.31,2.475,31.94-6.207-0.95-4.658-.13-4.748,2.06-8.275a136.009,136.009,0,0,1-32.97,5.172q-3.615-3.1-7.21-6.207-4.65,1.553-9.28,3.1v-4.138c2.54-5.514.85-7.363,0-14.483,6.1,0.978,3.59,2.307,7.21,1.034,1.38-.344,2.75-0.689,4.13-1.034-2.26-11.954-13.5-16.064-18.55-25.862,0.34-1.035.68-2.069,1.03-3.1,12.24-4.768,19.12-13.273,30.91-17.586q-1.02-6.206-2.06-12.414c0.69-.689,1.38-1.379,2.06-2.069,8.12,2.233,7.33-1.67,13.4-6.207,5.51,1.576,6.09,3,12.36,2.069q0.525-3.1,1.03-6.206l-9.27-1.035c-0.69-2.758-1.37-5.518-2.06-8.276,0.69-.689,1.37-1.379,2.06-2.069q6.18,2.586,12.37,5.173v-5.173q-3.09-3.62-6.19-7.241c3.16-2.692,4.88-2.047,4.13-6.207q-2.07-4.137-4.13-8.276-2.565.518-5.15,1.035l3.09,14.482c-9.94-2.487-8.45-.131-13.39-8.275V378.69c-0.69-.345-1.38-0.69-2.06-1.035l-8.25,3.1q-3.6-3.1-7.21-6.207c-11.49,5.383-10.2,12.086-15.46,21.724q-5.145-2.586-10.3-5.173c-5.82-.942-11.7,5.916-19.58,1.035-6.58-4.072-10.98-11.254-20.61-13.448l-8.25,8.275-3.09-5.172q-2.565.517-5.15,1.034c-1.69,11.122-.46,13.221,1.03,24.828-9.03-.326-15.13-4.626-21.64-8.276v-1.034c1.56-7.751,4.66-9.339,3.09-14.483h-10.3q0.51-8.793,1.03-17.586h-3.09c-2.25,9.041,1.39,8.275,0,16.551h-1.03q-5.16-1.551-10.31-3.1v3.1l6.18,3.1q-0.51,3.1-1.03,6.207h-5.15q-2.58-3.621-5.15-7.241l-3.09,2.068c-1.54,4.533-.25,3.732-5.15,5.173-2.41-1.379-4.81-2.759-7.22-4.138,1.5-7.634,5.91-16.575,4.12-21.724h-10.3c0.75,8.472-2.65,11.992-11.34,13.448v-4.138c3.24-3.894,5.07-3.715,6.19-10.345q-4.635-2.586-9.28-5.172c3.63,9.433-11.91,47.975-23.7,54.827,1.87,4.551,2.12,3.877-1.03,7.242-4.49.106-4.72-.711-6.18,5.172,5.69,2.4,5.73,6.162,5.15,14.483q-4.125,3.1-8.24,6.207c2.46,4.71,3.27,5.431,1.03,10.345-6.7-.336-6.7-2.749-9.28-1.035,3.84,4.176,7.36,8.41,11.34,12.414v3.1q-4.125,3.1-8.25,6.207c4.97-2.227,8.53-1.987,13.4,0-0.34-2.413-.69-4.827-1.03-7.241,15.54-.137,23.23-7.932,35.04-5.172l3.09,12.413c-11.56,3.516-13.47,9.577-26.79,11.38,0.21,10.263-2.09,12.44-5.16,18.62,0.35,1.035.69,2.069,1.03,3.1h8.25c0.05,5.275-.49,3.715,1.03,7.241,6.98-1.832,17.15-5.563,22.67,0-2.71,8.024-5.21,10.123-7.22,19.655,6.96-.316,8.11-2.4,14.43-1.034v5.172c-8.94,4.88-13.17,13.726-22.67,17.587,0.34,0.689.69,1.379,1.03,2.069h6.18Zm170.03-200.69-3.09,6.207c3.76-1.1,3.03-.842,5.15-3.1C1710.36,364.207,1709.67,363.172,1708.98,362.138Zm-889.3,1.034,3.091,1.035Zm903.727,2.069q-2.055,4.139-4.12,8.276,2.565,1.035,5.15,2.069c0.69-2.758,1.37-5.517,2.06-8.276ZM1302.98,384.9q1.02,2.069,2.06,4.137h3.09c0.68-1.034,1.37-2.069,2.06-3.1V384.9h-7.21Zm438.98,4.137c-0.35.69-.69,1.38-1.03,2.069h3.09C1743.33,390.414,1742.64,389.724,1741.96,389.034Zm-947.008,7.242-3.092,5.172,8.244-3.1ZM1702.8,469.724l-3.09,3.1,3.09,4.138,3.09-1.034c0.34-.69.69-1.379,1.03-2.069C1705.24,471.217,1705.65,471.354,1702.8,469.724Zm-396.73,12.414q1.02,2.586,2.06,5.172l3.09,1.035h3.09l-3.09-6.207h-5.15Zm177.24,8.276q-2.07,1.551-4.12,3.1,0.51,2.586,1.03,5.173h1.03c2.78-1.655,1.42-.352,3.09-3.1C1485.36,492.485,1485.05,492.818,1483.31,490.414Zm21.64,0c-0.69.689-1.38,1.379-2.06,2.069,1.37,0.689,2.75,1.379,4.12,2.069C1506.07,490.775,1507.05,492.436,1504.95,490.414Zm-195.79,4.138-3.09,6.207c0.34,1.379.68,2.758,1.03,4.137l3.09-1.034q2.055-4.137,4.12-8.276C1312.59,495.241,1310.88,494.9,1309.16,494.552Zm154.57,3.1c-0.34.345-.69,0.69-1.03,1.035,0.69,0.689,1.37,1.379,2.06,2.069q2.58-1.553,5.15-3.1h-6.18Zm275.14,2.069v0Zm-584.28,27.931-5.16,7.242h7.22c1.37-1.035,2.75-2.07,4.12-3.1Zm-18.55,7.242c2.47,3.358,2.52,4.647,7.21,6.206v-1.034c-1.37-1.724-2.75-3.449-4.12-5.172h-3.09Zm-113.35,2.068v2.069C1023.69,537.229,1023.63,538.807,1022.69,536.965Zm50.49,10.345c-0.34-2.069-.69-4.138-1.03-6.207h-3.09c-0.35.69-.69,1.38-1.03,2.069,1.44,7.659,4.09,15.234,14.42,13.449q0.525-5.69,1.03-11.38Q1078.335,546.276,1073.18,547.31Zm72.13-2.069q-1.02,3.1-2.06,6.207c0.69,0.69,1.38,1.38,2.06,2.069h1.03v-2.069C1147.24,548.143,1147.67,547.662,1145.31,545.241Zm618.29,7.242c-0.35.689-.69,1.379-1.03,2.069l3.09,1.034v-3.1h-2.06Zm-789.346,1.034,4.122,5.173C977.044,554.358,977.807,555.447,974.254,553.517Zm73.166,1.035c-0.35.345-.69,0.689-1.03,1.034,1.37,1.035,2.75,2.069,4.12,3.1h1.03v-1.035C1050.17,556.621,1048.79,555.586,1047.42,554.552Zm-89.653,11.379c-1.259,3.027-2.134,4.042-1.031,7.241l4.122-3.1v-1.035C959.022,565.328,961.405,567.81,957.767,565.931ZM1211.26,568c-0.68.345-1.37,0.69-2.06,1.034v4.138c0.35,0.345.69,0.69,1.03,1.035,4.56-.8,3.83-0.625,6.19-3.1v-1.034Zm-118.5,4.138c-0.34,1.379-.69,2.759-1.03,4.138h3.09c0.34-1.035.69-2.069,1.03-3.1Zm35.03,3.1q-2.565,4.139-5.15,8.276l3.09,1.035q5.16-1.035,10.31-2.069v-3.1Zm-165.9,5.173c-1.6,2.973-1.8,2.4-1.031,6.207h1.031c3.589-1.893,2.769-.873,4.121-5.173Zm142.2,1.034c-0.49,4.085-.64,7.142,2.06,10.345l2.07-1.035v-1.034C1106.59,585.683,1107.93,583.682,1104.09,581.448ZM1613.15,598l-3.09,5.172h9.27v-1.034c-0.34-.69-0.69-1.379-1.03-2.069C1616.58,599.379,1614.87,598.689,1613.15,598ZM968.071,616.621l6.183,5.172Zm-7.213,17.586-2.061,3.1q0.516,1.035,1.031,2.069h4.121v-4.138Zm732.672,22.758c-1.38,1.724-2.75,3.449-4.13,5.173,3.72-2.332,5.22-3.364,5.16-4.138C1694.21,657.655,1693.87,657.31,1693.53,656.965Zm4.12,2.069c0.34,1.035.68,2.07,1.03,3.1h1.03C1698.41,659.011,1699.73,660.9,1697.65,659.034Zm-2.06,8.276c-1.38,2.414-2.75,4.828-4.13,7.242h4.13l3.09-2.069c0.34-1.035.68-2.069,1.03-3.1Q1697.64,668.346,1695.59,667.31Zm-767.707,4.138-2.061,1.035q0.514,2.586,1.03,5.172l2.061,1.035,4.122-2.069v-3.1l-2.061-2.069h-3.091Zm16.487,10.345-7.213,8.276c4.854-1.317,7.607-3.86,10.3-7.241Zm585.31,0c-0.34.69-.69,1.379-1.03,2.069,2.99-.55,5.05.821,3.09-2.069h-2.06ZM921.7,685.931c2.6,1.683.172,1.019,3.092,0H921.7Zm-14.427,8.276-4.121,1.034v1.035q0.514,1.034,1.03,2.069l6.183-4.138h-3.092Zm569.857,0v4.138q1.02-2.069,2.06-4.138h-2.06ZM726.94,719.034c-1.11,3.706-2.406,5.59-1.03,9.311l2.061,4.138h4.122c0.265-5.676.787-6.484-1.031-9.311C729.478,718.825,731.252,720.64,726.94,719.034Zm-10.3,1.035q-0.516,5.172-1.031,10.345l2.061-1.035,2.061-9.31h-3.091Zm213.308,0v3.1l6.183-2.069v-1.034h-6.183Zm18.548,3.1-3.091,3.1v2.069l4.122,3.1,8.244-5.172v-1.035l-1.031-1.034ZM726.94,735.586l-6.183,1.035q0.516,1.033,1.031,2.069l4.122,2.069h1.03v-5.173Zm243.192,11.379,2.061,3.1h1.031v-1.035Zm-1.03,11.38c-3.1,2.753-4.542,2.593-6.183,7.241,4.727-1.326,5.78-2.872,8.244-6.207Zm-19.579,9.31,2.061,3.1,2.061-2.069Zm773.887,14.483c0.34,0.69.69,1.379,1.03,2.069,0.34-.69.69-1.379,1.03-2.069h-2.06ZM800.1,793.517l-2.061,1.035v1.034c3.762-.943,2.107.039,4.122-2.069H800.1Zm137.053,30v3.1l2.061-1.035Zm781.1,8.276q-1.035,2.068-2.06,4.138,2.055-2.069,4.12-4.138h-2.06ZM747.55,842.138l2.061,2.069C748.176,842.218,749.506,843.588,747.55,842.138Zm210.217,2.069q0.514,3.1,1.03,6.207l-9.274,4.138v1.034c3.058,1.863,5.138,2.237,9.274,1.035l4.122,1.034,5.152-10.345Zm799.643,0q-1.02,2.068-2.06,4.138h1.03c1.03-1.035,2.07-2.069,3.1-3.1Zm0,36.207c-0.34.689-.68,1.379-1.03,2.069,1.38,0.689,2.75,1.379,4.13,2.069v-4.138h-3.1Zm-797.582,4.138-3.092,3.1,2.061,4.138,3.092-2.069q0.514-2.586,1.03-5.172h-3.091Zm42.252,7.241q-2.58,3.1-5.155,6.207,1.545,1.551,3.1,3.1c3.86-2.312,4.89-3.208,6.18-8.275Zm493.59,0q0.525,3.1,1.03,6.207h2.07c0.34-1.034.68-2.069,1.03-3.1C1498.42,893.862,1497.05,892.827,1495.67,891.793Zm260.71,0c1.39,2.775,2.39,3.022,3.1,0h-3.1Zm-767.7,70.345c-0.226,3.445-.961,2.38,1.03,5.172l2.061-1.034C990.425,961.65,992.454,964.2,988.681,962.138Zm735.759,20.69v-6.207c-5.98-1.67-4.69-3.779-9.27-6.207,2.26,5.138,1.92,6.013-5.16,7.241v1.035c0.69,1.034,1.38,2.069,2.06,3.1,2.12,1.4,1.66,1.158,3.1,3.1Zm-745.033-7.242c-1.925,2.34-1.873,1.452-3.092,5.173H982.5v-4.138Zm-53.585,33.1q-4.636,3.615-9.274,7.24v3.1c0.343,0.35.687,0.69,1.03,1.04l3.092-2.07c3.6-4.85,8.613-.84,13.4-1.03-1.221-3.83-.972-5.19-4.122-7.25C928.57,1009.38,927.2,1009.03,925.822,1008.69Zm-18.549,7.24c0.687,0.35,1.374.69,2.061,1.04C908.647,1016.62,907.96,1016.28,907.273,1015.93Zm-190.637,11.38c-4.555,3.22-5.965,2.27-7.214,9.31h1.031q4.637-3.615,9.274-7.24Zm1017.074,7.24q-0.51,3.63-1.03,7.24c4.53-1.14,3.94-1.06,6.19-4.13-0.69-1.04-1.38-2.07-2.06-3.11h-3.1Zm-1016.044,4.14c-4.747,4.87-10.012,2.46-14.427,7.24q1.546,1.56,3.092,3.1h1.03c3.708-3.89,9.261-4.77,13.4-8.27l-2.06-2.07h-1.031Zm786.254,12.41v5.18c0.69-.35,1.37-0.69,2.06-1.04v-1.03C1504.68,1051.08,1506,1052.97,1503.92,1051.1Zm21.64,4.14c-0.63,4.59.03,5.7,4.12,8.28Q1527.625,1059.38,1525.56,1055.24Zm-816.138,13.45v4.14h3.092C711.152,1068.87,712.515,1070.68,709.422,1068.69Zm760.488,10.34,3.09,2.07Zm46.37,4.14c-3.03,2.12-5.78.96-9.27,2.07,0.34,0.69.69,1.38,1.03,2.07h12.37C1518.82,1082.96,1520.6,1084.78,1516.28,1083.17Zm-313.26,4.14c-1.65,5.04-4.41,5.51-5.15,8.28h8.24c0.69-2.76,1.37-5.52,2.06-8.28h-5.15Zm14.43,1.03c-2.07,4.87-4.28,5.92-6.19,10.35,0.69,0.34,1.38.69,2.06,1.03q4.125-3.09,8.25-6.2c-0.69-1.73-1.38-3.45-2.06-5.18h-2.06Zm-21.64,16.56c0.68,1.03,1.37,2.07,2.06,3.1C1197.18,1106.97,1196.49,1105.93,1195.81,1104.9Zm554.39,4.13c0.28,3.44.03,6.35,5.15,8.28Q1752.785,1113.17,1750.2,1109.03Zm8.25,26.9c-0.35.69-.69,1.38-1.04,2.07,1.38,0.69,2.75,1.38,4.13,2.07v-4.14h-3.09Zm-6.19,1.04c-2.99,3.71-4.92,4.74,1.03,7.24v-2.07C1754.47,1138.96,1754.35,1139.21,1752.26,1136.97Zm-815.1,10.34c1.4,2.13,1.154,1.67,3.092,3.1v-3.1h-3.092Zm817.163,3.1c0.29,2.45-.23,1.29,1.03,4.14,1.72,1.04,3.44,2.07,5.16,3.11h1.03v-3.11C1759.13,1153.17,1756.73,1151.79,1754.32,1150.41Zm-1047.989,2.07,3.091,8.28q2.061-1.56,4.122-3.1v-1.04c-1.374-1.03-2.748-2.07-4.122-3.1C708.392,1153.17,707.361,1152.83,706.331,1152.48Zm231.857,6.21-5.153,4.14q1.547,3.105,3.092,6.2c8.188-2.74,11.44,2.89,10.3,10.35l11.336,2.07,2.061-2.07c-4.054-5.11-7.665-14.06-9.275-20.69-2.825,3.32-1.228,3.36-7.213,4.14C940.99,1160.72,941.58,1160.21,938.188,1158.69Zm797.582,14.48c-1.92,2.34-1.87,1.45-3.09,5.17,0.69,0.35,1.38.69,2.06,1.04q2.58-1.56,5.16-3.1c-0.69-1.04-1.38-2.07-2.06-3.11h-2.07Zm-636.83,52.76c-0.34.35-.69,0.69-1.03,1.04,0.69,0.68,1.38,1.37,2.06,2.06H1101v-3.1h-2.06Zm21.64,1.04c-1.33,2.86-2.08,2.95-1.03,6.2l3.09-4.14C1121.96,1228.34,1121.27,1227.65,1120.58,1226.97Zm247.32,34.13q0.51,4.14,1.03,8.28,2.565-1.035,5.15-2.07C1372.2,1264.79,1370.78,1262.76,1367.9,1261.1Zm-231.86,13.45c-0.34.69-.69,1.38-1.03,2.07,1.37,0.35,2.75.69,4.12,1.04v-3.11h-3.09Zm379.21,7.24c0.23,4.67.73,5.58,2.06,8.28h1.03c2.94-2.99,3.9-3.11,5.16-8.28h-8.25Zm-363.75,2.07v0Zm228.76,0c-1.72,2.07-3.43,4.14-5.15,6.21,6.92,21.72,9.07,21.75,5.15,44.48,5.66,2.66,4.42,4.03,6.18,10.35,2.99-.14,3.01-0.18,6.19,1.03,1.46-2.45,1.7-2.73,2.06-7.24-3.58-6.5-4.82-5.65,1.03-10.35h1.03c5.41,4.53,7.34,9.37,14.43,12.42h1.03c0.34-5.74.71-5.34,3.09-8.28-19.79-2.78-21.6-32.73-22.67-46.55Zm-622.4,8.28-2.061,4.14c4.586,8.27-5.009,18.4,0,25.86,1.692,3.4,2.094,3.3,5.152,5.17l-3.091-8.28,15.457,2.07v-20.69c-1.031-2.07-2.061-4.13-3.092-6.2Zm581.185,0c-4.61,3.6-11.88,2.58-13.39,7.24,5.38,0.89,5.25,1.04,7.21,5.17,6.09-2.26,5.63-6.5,11.33-9.31-0.34-.69-0.68-1.38-1.03-2.07C1341.79,1292.83,1340.42,1292.48,1339.04,1292.14Zm159.73,1.03-4.13,3.11v1.03C1498.3,1295.78,1498.3,1294.69,1498.77,1293.17Zm22.67,0q-0.525,2.6-1.03,5.17,3.6,4.14,7.21,8.28c0.69-.69,1.37-1.38,2.06-2.07q-2.58-5.175-5.15-10.34C1523.5,1293.86,1522.47,1293.52,1521.44,1293.17Zm-5.16,12.42c-0.68.34-1.37,0.69-2.06,1.03v4.14q2.07,1.035,4.12,2.07c0.69-.35,1.38-0.69,2.07-1.04,0.34-.69.68-1.38,1.03-2.07-0.69-1.03-1.38-2.07-2.06-3.1C1518.34,1306.28,1517.31,1305.93,1516.28,1305.59Zm-186.51,4.13c-2.41,1.38-4.81,2.76-7.22,4.14,0.35,1.04.69,2.07,1.03,3.11,5.54,2.67,10.39,3.2,15.46,1.03v-1.03Q1334.405,1313.34,1329.77,1309.72Zm-349.333,1.04-2.061,4.14,5.152-4.14h-3.091Zm-26.792,3.1c-0.344.35-.687,0.69-1.031,1.04q3.607,4.125,7.214,8.27c8.984-2.67,8.861-1.51,16.487,1.04-2.056-2.59-4.247-5.5-7.213-7.24Q961.374,1315.41,953.645,1313.86Zm-199.912,27.93v-7.24h-3.092l-2.061,6.21-6.182-2.07c-0.344-1.03-.687-2.07-1.031-3.1,1.472-6.32,4.752-7.65,3.092-11.38-0.344-1.73-.688-3.45-1.031-5.18-7.374.12-5.442,0.7-9.274-4.13-1.031.34-2.061,0.69-3.092,1.03q3.092,6.72,6.183,13.45c-5.849,4.44-6.2,13.28-3.091,21.72h1.03c1.031-1.72,2.061-3.45,3.092-5.17,5.6,0.86,4.823,1.89,8.243,2.07l2.061-6.21h5.153Zm577.067-1.03v5.17c0.69,0.35,1.37.69,2.06,1.04,0.69-.35,1.37-0.69,2.06-1.04v-4.14C1333.55,1341.45,1332.17,1341.1,1330.8,1340.76Zm17.52,11.38c1.58,4.34-.19,2.53,4.12,4.14q-1.035-2.07-2.06-4.14h-2.06Zm42.25,0c-0.69,1.03-1.38,2.07-2.07,3.1,1.3,3.13-.01,1.24,2.07,3.1,1.37,1.04,2.74,2.07,4.12,3.11,1.03-.35,2.06-0.69,3.09-1.04q1.545-2.58,3.09-5.17v-1.03Zm-72.14,5.17c0.22,4.67.73,5.58,2.06,8.28h9.28v-3.11c-1.38-1.72-2.75-3.45-4.12-5.17h-7.22Zm-347.267,4.14c-0.344,2.41-.687,4.83-1.031,7.24,0.687,0.34,1.374.69,2.061,1.03,0.687-1.03,1.374-2.06,2.061-3.1q0.516-2.07,1.031-4.14C973.911,1362.14,972.537,1361.79,971.163,1361.45ZM1735.77,1378c1.04,0.69,2.07,1.38,3.1,2.07C1737.01,1377.96,1738.85,1379.34,1735.77,1378Zm-1.03,13.45c2.07-.35,4.13-0.69,6.19-1.04v-4.13c-0.69-.69-1.38-1.38-2.06-2.07-1.03.34-2.06,0.69-3.1,1.03Q1735.26,1388.345,1734.74,1391.45Zm-757.394,50.69c2.088,3.57,1.643,3.75,6.182,5.17q-0.515-2.07-1.03-4.14C980.781,1442.83,979.063,1442.48,977.346,1442.14Zm758.424,9.31c-1.86,2.95-2.41,2.29-5.15,4.14,0.35,0.69.69,1.38,1.03,2.07,1.03-1.04,2.06-2.07,3.09-3.11,3.13-2.01,1.08-.34,2.07-3.1h-1.04Zm14.43,34.14c-0.34.69-.69,1.38-1.03,2.07,0.34,0.34.69,0.68,1.03,1.03,0.69-.35,1.38-0.69,2.06-1.03C1751.58,1486.97,1750.89,1486.28,1750.2,1485.59Zm-804.8,4.13c0.91,7.14,3.841,15.47,15.457,13.45-0.7-4.45-1.887-10.17-5.152-12.41C952.271,1490.41,948.836,1490.07,945.4,1489.72Zm757.4,54.83,3.09,2.07C1704.04,1544.51,1705.88,1545.89,1702.8,1544.55Zm-713.089,2.07-1.03,2.07h2.061Zm725.459,6.21-5.16,2.07v2.07h1.03C1715.57,1554.67,1715.72,1555.06,1715.17,1552.83Zm-218.47,67.24c-0.34.34-.68,0.69-1.03,1.03,1.03,0.69,2.07,1.38,3.1,2.07v-1.03Zm239.07,15.52c-0.34.69-.68,1.38-1.03,2.07,1.38,0.68,2.75,1.37,4.13,2.06C1737.5,1635.76,1738.87,1637.57,1735.77,1635.59Zm-217.43,1.03v4.14h4.13l-3.09-4.14h-1.04Zm-10.3,1.04c-1.09,5.99,1.12,9.69-1.03,15.51,4.43-1.47,4.92-2.91,7.21-6.2Q1511.13,1642.3,1508.04,1637.66Zm-591.492,4.13a14.54,14.54,0,0,0,4.122,9.31v-2.07c0.343-.34.687-0.69,1.03-1.03l-2.061-6.21h-3.091Zm30.914,3.11c-0.344,1.38-.687,2.76-1.031,4.13,1.031-.69,2.062-1.37,3.092-2.06Zm21.64,4.13c0.343,1.73.687,3.45,1.03,5.18l2.061-2.07C970.779,1650.18,971.19,1650.44,969.1,1649.03Zm-38.128,1.04c0.883,5.41,1.038,5.27,5.153,7.24,0.343-1.03.687-2.07,1.03-3.1Zm576.036,9.31c1.85,2.11.02,0.73,3.09,2.07Zm9.27,6.21c-0.34.34-.68,0.69-1.03,1.03,0.69,0.69,1.38,1.38,2.06,2.07,1.03-.69,2.07-1.38,3.1-2.07v-1.03h-4.13Zm1.03,8.27c2.26,2.03,3.3,2.36,7.22,3.11,0.34-.69.68-1.38,1.03-2.07v-1.04h-8.25Zm188.58,5.17c-1.01,3.87-1.98.84,0,4.14l3.09,4.14c0.69-.34,1.38-0.69,2.06-1.03v-4.14C1709.33,1681.1,1707.61,1680.07,1705.89,1679.03Zm-989.254,2.07c-0.344,1.73-.687,3.45-1.031,5.18,4.731,1.61,4.868,2.48,7.213,6.2,1.031-1.72,2.062-3.45,3.092-5.17v-1.03Q721.274,1683.685,716.636,1681.1Zm16.487,1.04L729,1686.28h7.214v-1.04C734.835,1683.76,734.929,1683.42,733.123,1682.14Zm222.583,12.41-3.092,4.14v1.03c2.748,1.04,5.5,2.07,8.244,3.11v-4.14c-0.343-1.03-.687-2.07-1.03-3.1C958.454,1695.24,957.079,1694.9,955.706,1694.55Zm12.365,2.07q-0.515,5.175-1.03,10.35c-9.256.74-15.53,5.35-21.64,8.27q-1.545,7.245-3.091,14.48l2.06,2.07H945.4c0.816-6.88,1.888-13.69,9.274-16.55v2.07c1.69,7.16-1.112,16.02-3.091,23.79l2.061,2.07c0.687-.34,1.374-0.69,2.061-1.03q3.09-4.14,6.183-8.28-2.061-3.1-4.122-6.2c0.343-1.04.687-2.07,1.03-3.11,5.3-1.18,11.233-.91,14.427-4.14v-3.1l-5.153-2.07q2.577-7.245,5.153-14.48Zm776.979,3.1c-0.95,7.3-.82,7.12,5.15,11.38,1.03-2.07,2.06-4.13,3.09-6.2-0.34-1.04-.68-2.07-1.03-3.11Zm-758.43,1.04-6.183,2.07q0.516,2.07,1.031,4.14h4.121c1.374-1.04,2.749-2.07,4.122-3.11C988.681,1702.83,987.65,1701.79,986.62,1700.76Zm-39.158,2.07,3.091,2.07C948.7,1702.78,950.538,1704.17,947.462,1702.83Zm783.158,0c-3.44,7.32-10.16,13.35-14.42,20.69q4.11,2.58,8.24,5.17c0.31-7.74,2.07-8.29,8.24-7.24q0.525,5.175,1.03,10.34h3.1c0.68-.34,1.37-0.69,2.06-1.03q2.055-5.685,4.12-11.38c-3.82-.39-6.6.5-9.28-2.07-0.34-2.41-.68-4.83-1.03-7.24,5.22-.67,5.68-1.18,8.25-4.14Q1735.77,1704.385,1730.62,1702.83Zm-794.493,9.31v6.2c3.762-1.09,3.03-.84,5.152-3.1-0.343-1.03-.687-2.07-1.03-3.1h-4.122Zm-26.793,4.14c-0.564,4.42-1.663,3.26,3.092,5.17v-3.11C911.4,1717.66,910.365,1716.97,909.334,1716.28Zm848.076,0c-0.68,1.03-1.37,2.06-2.06,3.1v1.03h6.19c0.34-.69.68-1.38,1.03-2.07v-1.03c-0.69-.34-1.38-0.69-2.06-1.03h-3.1Zm-785.217,10.34c0.033,3.06-.221,2.1,1.031,5.17,5.553,0.62,5.344,1.97,8.244,0Q976.83,1729.21,972.193,1726.62Zm-69.041,5.17c0.5,5.13.482,4.74,3.091,7.24q1.545-1.545,3.091-3.1c-0.687-.34-1.374-0.69-2.061-1.03C905.283,1731.77,907.063,1733.22,903.152,1731.79Zm17.518,2.07c1.434,1.99.1,0.62,2.061,2.07Q921.7,1734.9,920.67,1733.86Zm820.26,3.11c0.57,5.13,1.4,6.63,4.12,9.31h1.03v-9.31h-5.15Zm-802.742,6.2-1.031,2.07,4.122-2.07h-3.091Zm6.182,1.04q1.03,5.16,2.061,10.34c-0.343.35-.687,0.69-1.03,1.04-5.163-.13-4.2-0.93-7.213,1.03,1.738,3.8,2.576,6.19,6.182,8.28l6.183,2.07c1.122-8.17,3.485-5.6,8.244-9.31C952.432,1753.78,951.944,1746.12,944.37,1744.21Zm566.76,12.41c0.11,3.21-.63,1.2,1.03,4.14,0.69-.69,1.38-1.38,2.06-2.07Zm239.07,0v5.17c2.28-2.13,1.94-1.43,3.09-5.17h-3.09Zm-809.951,15.52c0.963,4.02.546,5.02-1.031,8.27q3.092-2.07,6.183-4.13Zm788.311,7.24c3.12,4.17,5.8,4.44,9.28,3.1-0.35-.69-0.69-1.38-1.03-2.07C1734.06,1780.07,1731.31,1779.72,1728.56,1779.38Zm-91.71,37.24c-6.17.57-24.14,7.47-34.01,10.35,2.19,3.77,3.24,3.68,4.13,9.31-2.05,1.65-1.44,1.34-5.16,2.06q1.035,6.21,2.06,12.42c5.54-.65,5.55-2.66,7.22,3.1q-3.09,2.6-6.19,5.17-8.745,3.1-17.51,6.21v-3.1c7.7-3.37,7.08-9,10.3-14.48-4.62,1.71-8.05,3.39-13.39,2.06q1.02-3.615,2.06-7.24l-8.25-2.07c-0.34,1.38-.68,2.76-1.03,4.14-7.31.5-13.18-.2-22.67-2.07-0.34-2.41-.69-4.83-1.03-7.24h-1.03q-1.545,5.685-3.09,11.38c3.74,0.67,3.12.42,5.15,2.07-1.52,5.74-1.3,8.67-1.03,16.55q6.18-.51,12.37-1.03,1.545,8.265,3.09,16.55h6.18c0.44,5.34,5.07,29.91,5.15,30,3.71,4.25,5.31,5.46,4.13,12.41-2.75.35-5.5,0.69-8.25,1.04q1.035,2.07,2.06,4.13c2.62,4.24,7.24,6.38,10.31,10.35-2.79,5.79-5.76,3.46-2.06,8.28,3.06,4.23,4.91,2.54,6.18,9.31q-5.16,6.72-10.31,13.44c1.81,3.99,4.07,5.27,3.1,9.31-2.63,7.96-4.48,9.51-6.19,19.66q-7.725,2.58-15.45,5.17a18.093,18.093,0,0,0,2.06,12.42q3.6,2.58,7.21,5.17c1.37-1.04,2.75-2.07,4.12-3.11,1.65-4.11,2.69-5.06,6.18-7.24,2.07,0.35,4.13.69,6.19,1.04,0.68,1.72,1.37,3.45,2.06,5.17-1.29,6.23-4.09,19.29-8.25,23.79q-5.655.525-11.33,1.04c2,7.94-2.34,9.77-6.18,14.48h-5.16c-2.71,21.53-18.82,14.53-28.85,20.69-3.55,2.18-2.46,8.32-4.12,12.41,4.14,0.8,9.12,2.71,11.33,5.18,3.68,4.21-1.35,7.24-3.09,9.31h5.16q-0.525,7.755-1.04,15.51c4.27-.45,3.9-0.32,7.22,2.07-0.34,5.65-.74,9.06-5.15,8.28-6.41,3.58-9.82,9.11-10.31,18.62h3.09c0.35-5.13.64-5.71,3.09-8.28q11.34,6.21,22.67,12.42a32.652,32.652,0,0,1,4.13-20.69c5.72-1.33,11.53-1.46,14.42-2.07,0.36-7.1,2.05-7.74,4.12-12.41,7.45,0.72,6.53.86,13.4,0,5.96,7.64,11.64,11.32,12.37,24.82l-8.25,4.14c0.69,0.35,1.38.69,2.06,1.04,2.67,2.05,4.13,2.95,7.22,2.06,1.37-.69,2.75-1.38,4.12-2.06-3.43-2.25-3.05-2.61-3.09-8.28h2.06q5.67-2.07,11.33-4.14c1.65,7.64,5.15,11.62,10.31,15.52,6.62-1.02,37.25,2.02,43.28,5.17,5.18,2.71,4.02,7.28,11.33,7.24v-1.03c-2.65-2.5-2.55-2.13-3.09-7.24q3.09-3.63,6.18-7.24,4.65,1.545,9.28,3.1v-2.07c0.34-1.03.69-2.07,1.03-3.1-0.34-.35-0.69-0.69-1.03-1.04-6.7,1.04-8.54,2.13-14.43,0q0.525-3.105,1.03-6.21h6.19q-1.035-5.16-2.07-10.34c1.72-.34,3.44-0.69,5.16-1.03h-2.06c-2.96-3.12-6.23-6.26-9.28-9.31v2.06c-2.6,2.7-2.91,3.77-3.09,9.31-6.61-2.44-8.57-10.66-17.52-15.51,0.15-5.15,2.05-19.52,5.15-22.76,2.75,0.34,5.5.69,8.25,1.03q2.055-4.65,4.12-9.31h10.31c-3.75-7.49,2.56-16.36,11.33-17.58-1.37-2.42-2.75-4.83-4.12-7.24q-3.615,1.02-7.21,2.06,0.51-3.615,1.03-7.24c-7.76,3.06-20.32-4.48-27.83-2.07l3.09,14.49c-6.94,3.03-8.96,8.21-15.45,10.34-0.69-.34-1.38-0.69-2.06-1.03q-2.07-4.14-4.13-8.28c0.69-1.03,1.38-2.07,2.07-3.1q4.11-3.1,8.24-6.21c-1.61-7.48.83-9.89,0-17.59q14.94,0.525,29.88,1.04v-1.04a25.3,25.3,0,0,1-6.18-13.44c2.56-2.86,5.24-7.96,8.24-10.35-4.17-3.26-6.31-3.33-7.21-10.34,0.34-1.04.69-2.07,1.03-3.11q4.635-1.545,9.28-3.1c-0.97-5.7-1.72-4.96,0-9.31,5.27-1.91,4.26-3.38,6.18-8.28-3.39-4.91-6.21-7.87-7.22-15.51l5.16-10.35q5.145-1.545,10.3-3.1c-5.44-9.55-8.21-21.02-8.24-36.21h4.12c0.34,1.72.69,3.45,1.03,5.17,1.37-1.38,2.75-2.76,4.12-4.13q-1.02-6.21-2.06-12.42c5.11-.5,4.72-0.48,7.21-3.1-2.92-3.32-3.96-2.58-5.15-8.28q4.635-2.58,9.28-5.17c-8.66-4.13-14.55-17.1-16.49-25.86,0.34-.69.69-1.38,1.03-2.07q6.18-3.1,12.37-6.21c-2.24-2.75-2.07-2.89-6.19-4.14-5.29,11.29-8.17,1.68-12.36-2.06q-13.395-3.63-26.8-7.25c-12.96-6.65-13.05-23.51-22.67-34.13-5.83.21-6.91,1.12-10.3,3.1v7.24Zm-40.19,16.55c-0.34.69-.69,1.38-1.03,2.07,1.72,0.35,3.44.69,5.15,1.04v-2.07C1599.41,1833.86,1598.03,1833.52,1596.66,1833.17Zm-666.716,3.11c-1.686,3.81-1.44,3.81-1.031,9.31h5.153c1.717-1.73,3.435-3.45,5.152-5.18Q934.582,1838.34,929.944,1836.28Zm611.076,12.41q-1.56,2.07-3.1,4.14h7.22v-4.14h-4.12Zm-796.561,1.03v0Zm-35.037,6.21-2.061,4.14,2.061,2.07,3.092-2.07v-1.04C710.865,1856.24,712.164,1857.61,709.422,1855.93Zm31.945,3.1q1.545,5.175,3.092,10.35c0.686-1.72,1.373-3.45,2.06-5.17v-1.04Zm10.305,13.45c0.687,0.35,1.374.69,2.061,1.04C753.046,1873.17,752.359,1872.83,751.672,1872.48Zm499.778,36.21c1.39,3.52.63,2.14,3.09,4.14,0.35-1.04.69-2.07,1.03-3.11C1254.2,1909.38,1252.83,1909.03,1251.45,1908.69Zm11.34,14.48c1.81,3.89,1.66,3.86,6.18,5.17v-1.03Zm18.55,3.11c2.01,5.61,4.04,4.24,5.15,11.38,4.93-1.06,5.72-1.99,8.24-5.18-0.69-1.03-1.37-2.07-2.06-3.1l-6.18,2.07C1284.71,1928.78,1284.31,1927.92,1281.34,1926.28Zm-21.64,6.2c1.8,2.49,1.05,1.73,4.12,3.11v-1.04Q1261.75,1933.515,1259.7,1932.48Zm47.4,0c0.28,2.45-.23,1.29,1.03,4.14,0.68-.69,1.37-1.38,2.06-2.07Zm-23.7,7.24c-3.58,3.88-5.84,6.92-12.37,5.18,1.37,5.58,3.01,6.52,8.24,5.17q3.105-4.65,6.19-9.31C1284.77,1940.41,1284.08,1940.07,1283.4,1939.72Zm-31.95,1.04c-0.03,4.71-.13,6.1,2.06,8.27,1.03,1.04,2.06,2.07,3.09,3.11v-3.11Q1254.035,1944.905,1251.45,1940.76Zm44.31,2.07c1.86,2.11.02,0.73,3.09,2.07Zm273.08,0q-4.635,2.07-9.28,4.14c0.35,1.03.69,2.06,1.03,3.1,4.81,2.46,6.07,4.43,9.28,8.27v-2.06q3.6-5.7,7.21-11.38c-0.34-.69-0.69-1.38-1.03-2.07h-7.21ZM1069.06,1948c-0.69.69-1.38,1.38-2.06,2.07,0.68,0.69,1.37,1.38,2.06,2.07h1.03C1069.74,1950.76,1069.4,1949.38,1069.06,1948Zm166.93,0v4.14c1.04-.35,2.07-0.69,3.1-1.04V1948h-3.1Zm-224.64,4.14c0.34,2.07.69,4.14,1.03,6.2,1.72,0.35,3.44.69,5.15,1.04v-3.1C1015.3,1953.52,1015.46,1953.38,1011.35,1952.14Zm256.59,4.14v0Zm-198.88,1.03c-1.65,4.49-5.15,12.41-5.15,12.41q4.635,1.56,9.27,3.11c0.69-1.38,1.37-2.76,2.06-4.14-1.42-5.5-1.75-7.5-4.12-11.38h-2.06Zm145.29,13.45c-0.34.69-.68,1.38-1.03,2.07,2.06,0.34,4.13.69,6.19,1.03v-1.03C1217.46,1971.17,1218.08,1971.49,1214.35,1970.76Zm107.17,9.31c0.03,3.17-.99,1.45,1.03,4.14h1.03Q1322.56,1982.14,1321.52,1980.07Zm-584.275,13.45v3.1c0.344-1.03.687-2.07,1.031-3.1h-1.031Zm579.125,5.17c2.24,3.08.69,2.77,4.12,2.07Q1318.435,1999.725,1316.37,1998.69Zm-615.192,21.72-5.152,6.21c0.687,1.04,1.374,2.07,2.061,3.1q2.575-1.035,5.152-2.06l1.031-7.25h-3.092Zm12.366,1.04v4.14c1.031,0.34,2.061.69,3.092,1.03v-3.1Zm3.092,6.21c0.687,1.03,1.374,2.06,2.061,3.1C718.01,2029.72,717.323,2028.69,716.636,2027.66Zm4.121,10.34q-0.514,1.035-1.03,2.07c3.745-.67,3.119-0.42,5.152-2.07h-4.122Zm576.033,33.1c-0.76,3.62-.98,3.5,1.03,6.21Q1297.31,2074.205,1296.79,2071.1Zm396.74,24.83c0.68,0.69,1.37,1.38,2.06,2.07C1694.15,2096.01,1695.48,2097.38,1693.53,2095.93Zm-15.46,5.17c-1.38,1.73-2.75,3.45-4.12,5.18,2.49,5.22,4.79,4.32,9.27,2.06C1681.67,2104.89,1681.25,2103.08,1678.07,2101.1Zm75.22,1.04c-0.34.69-.68,1.38-1.03,2.07,0.35,0.34.69,0.69,1.03,1.03,0.69-.69,1.38-1.38,2.06-2.07v-1.03h-2.06Zm-14.42,2.07c-0.35,1.38-.69,2.76-1.03,4.13C1739.41,2105.98,1739.72,2107.09,1738.87,2104.21Zm-2.06,15.51c-0.35.69-.69,1.38-1.04,2.07,2.81,1.36,1.99.46,4.13-1.03C1738.87,2120.41,1737.84,2120.07,1736.81,2119.72ZM827.927,2131.1c-3.018,5.51-5.338,4.71-9.274,7.24l1.03,2.07h4.122q4.122-3.1,8.244-6.2C830.675,2133.17,829.3,2132.14,827.927,2131.1Zm744,2.07v3.11c0.34-1.04.69-2.07,1.03-3.11h-1.03ZM837.2,2139.38v2.07C838.208,2139.64,838.141,2141.22,837.2,2139.38Zm455.469,21.72v3.11l3.09-2.07C1294.73,2161.79,1293.7,2161.45,1292.67,2161.1Zm412.19,0c0.69,0.35,1.37.69,2.06,1.04C1706.23,2161.79,1705.55,2161.45,1704.86,2161.1Zm-617.25,1.04c0.68,1.03,1.37,2.07,2.06,3.1,0.68-.69,1.37-1.38,2.06-2.07C1090.35,2162.83,1088.98,2162.48,1087.61,2162.14Zm-115.417,23.79V2188C973.2,2186.19,973.133,2187.77,972.193,2185.93Zm-10.3,6.21c0.686,0.34,1.374.69,2.06,1.03C963.263,2192.83,962.575,2192.48,961.889,2192.14Zm-310.173,41.38c0.687,0.34,1.374.69,2.061,1.03C653.09,2234.21,652.4,2233.86,651.716,2233.52Z"/>
</svg>
